<?xml version="1.0" standalone="no"?>
<!DOCTYPE svg PUBLIC "-//W3C//DTD SVG 20010904//EN"
 "http://www.w3.org/TR/2001/REC-SVG-20010904/DTD/svg10.dtd">
<svg version="1.0" xmlns="http://www.w3.org/2000/svg"
 width="768.000000pt" height="768.000000pt" viewBox="0 0 768.000000 768.000000"
 preserveAspectRatio="xMidYMid meet">
<metadata>
Created by potrace 1.14, written by Peter Selinger 2001-2017
</metadata>
<g transform="translate(0.000000,768.000000) scale(0.100000,-0.100000)"
fill="#000000" stroke="none">
<path d="M1560 7642 c-57 -60 -127 -164 -139 -206 -11 -40 -7 -61 10 -51 5 4
9 1 9 -6 0 -24 74 1 160 56 48 30 95 55 105 55 11 0 15 5 12 14 -4 9 15 33 46
63 28 26 65 63 80 81 l29 32 -138 0 -139 0 -35 -38z"/>
<path d="M2262 7587 c-25 -26 -29 -47 -9 -47 19 0 60 47 52 59 -9 16 -19 13
-43 -12z"/>
<path d="M486 7533 c-19 -27 -44 -54 -55 -60 -11 -7 -25 -32 -31 -55 -16 -65
-31 -87 -66 -104 -17 -8 -36 -25 -42 -38 -12 -28 -91 -76 -124 -76 -13 0 -48
9 -78 21 -30 11 -63 23 -73 26 -16 5 -17 -14 -17 -302 0 -289 1 -307 17 -300
46 19 84 26 153 31 41 2 79 9 84 14 19 19 93 11 144 -15 28 -14 55 -25 61 -25
6 0 19 -4 29 -9 69 -34 135 -61 152 -61 10 0 22 -5 25 -10 4 -6 12 -9 18 -8 7
1 33 -6 58 -16 25 -9 49 -16 55 -15 5 2 26 -3 47 -10 21 -7 51 -14 65 -16 15
-2 77 -10 137 -19 61 -9 118 -16 128 -16 16 0 26 -39 10 -41 -5 -1 -17 -3 -28
-4 -11 -1 -34 -9 -50 -17 -17 -8 -43 -18 -60 -22 -16 -4 -61 -23 -100 -43 -38
-20 -108 -49 -154 -64 -78 -27 -97 -29 -230 -29 -170 0 -292 -12 -448 -42
l-113 -21 0 -277 0 -276 42 -11 c32 -9 45 -9 50 0 5 8 8 6 8 -6 0 -15 7 -17
56 -12 31 3 61 8 66 11 5 3 23 7 41 9 18 2 57 9 87 15 68 13 233 39 280 44
101 11 137 20 170 46 33 26 37 27 63 14 16 -9 27 -10 27 -4 0 5 -7 10 -15 10
-30 0 -14 26 26 43 27 12 73 19 134 21 51 2 99 7 106 12 8 5 37 9 64 11 28 1
65 5 82 8 34 6 58 36 49 60 -3 8 3 24 13 37 19 24 24 58 9 58 -4 0 -8 -8 -8
-17 0 -9 -2 -14 -5 -11 -9 8 6 59 15 53 4 -2 32 2 62 10 30 7 74 16 99 19 107
14 105 25 -6 23 -64 -1 -120 -7 -135 -14 -17 -9 -26 -9 -31 -2 -4 6 -19 9 -35
5 -16 -3 -63 -8 -106 -11 -62 -4 -77 -2 -82 11 -10 27 39 59 214 135 235 101
234 101 317 97 94 -4 122 -24 146 -104 10 -32 26 -81 34 -109 9 -27 17 -58 18
-67 2 -25 15 -35 15 -12 0 15 2 16 9 5 7 -11 14 -7 30 19 15 26 18 37 9 48 -6
7 -13 29 -15 49 -2 20 -10 45 -18 57 -37 51 -10 41 100 -38 39 -28 78 -55 86
-61 9 -5 44 -31 78 -57 l63 -48 -27 -10 c-14 -5 -50 -10 -78 -10 -29 0 -84 -9
-122 -20 -38 -11 -82 -20 -97 -20 -15 0 -31 -6 -35 -12 -4 -7 -17 -18 -27 -24
-61 -33 -36 -80 40 -76 l45 2 -6 -53 c-6 -53 1 -94 45 -272 36 -140 68 -200
153 -283 76 -73 83 -77 111 -66 22 8 20 24 -2 24 -31 0 -82 62 -82 99 0 18 -6
45 -14 59 -8 15 -19 47 -26 72 -7 25 -19 52 -27 61 -16 19 -34 129 -31 192 1
23 -1 56 -5 73 l-8 32 63 7 c35 4 72 11 83 16 13 6 3 7 -30 3 -102 -11 -135
-8 -161 17 -13 12 -21 26 -17 29 18 15 172 70 196 70 15 0 35 4 45 9 33 16 87
33 106 33 10 -1 26 -8 35 -16 10 -9 31 -16 48 -16 17 0 41 -9 55 -19 13 -11
51 -32 83 -48 33 -16 87 -46 120 -66 33 -20 67 -37 76 -37 8 0 19 -4 25 -9 5
-5 45 -21 89 -36 44 -15 100 -36 125 -47 98 -45 230 -89 330 -112 101 -24 322
-56 379 -56 31 0 61 -27 62 -56 0 -10 3 -14 5 -7 7 16 34 5 34 -14 0 -7 7 -13
16 -11 14 3 17 -9 18 -80 0 -46 -2 -86 -6 -89 -5 -2 -8 5 -8 17 0 12 -4 19 -8
16 -9 -5 -14 -112 -7 -136 3 -9 19 -16 42 -17 28 -2 34 0 23 7 -13 8 -13 10 1
10 23 0 30 -11 17 -27 -6 -7 -8 -17 -4 -20 4 -4 11 -1 16 7 6 8 10 11 10 6 0
-6 5 -5 12 2 6 6 12 32 13 57 1 30 -2 42 -9 35 -17 -17 -26 -11 -26 18 0 15
-5 34 -10 42 -8 11 -9 6 -8 -19 2 -23 -2 -35 -12 -38 -9 -3 -11 -1 -5 4 14 11
17 33 5 33 -6 0 -10 -5 -10 -12 0 -6 -3 -8 -6 -5 -4 4 -1 14 6 23 8 9 10 18 4
22 -8 6 -15 132 -7 132 7 0 48 -25 62 -38 8 -8 23 -11 33 -9 11 3 22 -1 25 -9
3 -9 13 -12 24 -9 18 6 24 -4 20 -29 -1 -5 5 -6 14 -3 10 4 15 1 15 -11 0 -10
7 -27 15 -39 8 -12 17 -40 19 -62 2 -23 6 -44 10 -48 12 -12 6 -23 -15 -23
-11 0 -18 4 -15 9 7 11 -55 34 -63 24 -11 -15 -43 -12 -37 3 3 8 1 14 -4 14
-13 0 -13 -27 0 -35 6 -3 8 -18 5 -33 -3 -15 -2 -21 1 -14 7 15 34 16 34 1 0
-5 -4 -7 -10 -4 -5 3 -10 2 -10 -4 0 -5 5 -13 10 -16 6 -3 10 -18 10 -32 0
-42 12 -18 16 31 2 25 -1 48 -6 51 -13 8 -3 25 14 25 10 0 12 -15 9 -55 -3
-40 0 -55 9 -55 7 -1 3 -9 -10 -20 -22 -18 -22 -19 -2 -17 11 1 20 5 20 9 0 4
7 8 15 8 18 0 19 -12 4 -27 -8 -8 -7 -17 5 -34 9 -13 16 -28 16 -34 0 -5 -5
-3 -10 5 -8 12 -10 9 -10 -13 0 -19 -4 -27 -12 -23 -7 3 -21 9 -31 12 -12 4
-16 13 -12 25 4 11 2 19 -4 19 -6 0 -10 -17 -9 -40 1 -32 4 -38 15 -28 7 6 16
8 19 5 9 -9 -5 -27 -22 -27 -8 0 -14 -10 -14 -25 0 -22 -2 -24 -14 -13 -10 9
-11 18 -4 31 10 20 2 38 -10 22 -10 -14 -32 -17 -32 -5 0 5 11 17 25 26 14 9
25 21 25 27 0 7 -4 7 -12 -1 -7 -7 -23 -12 -36 -12 -13 0 -21 -4 -17 -9 3 -5
1 -12 -3 -15 -5 -3 -8 -18 -6 -33 l4 -28 -11 29 c-8 21 -9 34 -1 46 5 9 6 23
2 30 -4 7 -6 19 -3 27 4 9 0 11 -11 7 -16 -6 -19 0 -19 39 0 9 -2 17 -5 17
-11 0 -31 -36 -32 -56 0 -30 26 -90 32 -73 7 19 28 -80 21 -100 -2 -9 2 -5 10
8 l15 24 16 -29 c10 -16 15 -21 12 -12 -6 19 10 25 16 7 3 -9 10 -9 27 0 21
12 22 11 16 -8 -5 -16 -3 -20 9 -15 13 5 16 -2 16 -35 0 -23 -4 -41 -9 -41 -6
0 -8 -10 -6 -22 5 -26 -14 -98 -27 -98 -12 0 -10 14 4 28 9 9 9 12 1 12 -13 0
-27 -36 -19 -49 10 -15 -71 -79 -108 -86 -40 -8 -56 -1 -56 25 0 13 -5 17 -20
13 -11 -3 -20 0 -20 6 0 6 -9 11 -20 11 -10 0 -24 8 -29 18 -6 9 -11 13 -11 9
0 -16 -60 28 -60 45 0 11 -5 15 -15 12 -9 -4 -15 0 -15 10 0 9 -6 16 -14 16
-8 0 -16 7 -20 15 -3 8 -11 15 -19 15 -55 0 -137 85 -137 142 0 15 -5 30 -11
33 -16 10 -24 -4 -11 -17 18 -18 15 -58 -5 -65 -10 -3 -25 -12 -35 -20 -17
-15 -35 -2 -23 16 3 5 -8 9 -24 9 -16 -1 -42 9 -59 21 -19 13 -33 17 -37 11
-9 -14 -21 -12 -40 7 -14 13 -21 14 -36 5 -15 -10 -19 -9 -19 1 0 7 6 19 13
26 6 7 8 12 2 11 -20 -4 -32 0 -53 20 -22 21 -22 21 -22 1 0 -11 -4 -22 -9
-25 -4 -3 -7 8 -5 25 3 27 2 30 -12 19 -8 -7 -12 -20 -9 -28 5 -13 3 -13 -11
-1 -13 11 -17 10 -25 -4 -14 -24 -32 -21 -24 3 4 11 2 20 -4 20 -6 0 -11 -3
-11 -8 0 -4 -14 -13 -32 -21 -24 -11 -33 -11 -36 -3 -5 16 -49 15 -54 0 -3 -7
-12 -9 -22 -5 -9 4 -14 11 -11 17 4 6 -5 10 -19 10 -18 0 -24 -4 -20 -15 8
-21 -3 -19 -34 6 l-27 21 -3 -21 c-2 -12 -7 -21 -11 -21 -16 0 -20 13 -9 34
11 21 11 21 -10 3 -20 -18 -21 -18 -46 0 -14 10 -26 24 -26 31 0 6 -6 12 -14
12 -8 0 -16 10 -18 22 -2 12 -9 23 -16 26 -7 2 -11 -2 -10 -10 2 -7 -5 -12
-14 -12 -10 1 -18 -5 -18 -13 0 -10 -6 -12 -22 -7 -51 15 -68 24 -68 34 0 17
-28 11 -33 -7 -4 -16 -5 -16 -6 -1 -1 12 -14 19 -44 23 -23 4 -47 5 -52 4 -6
-2 -20 1 -33 5 -16 5 -29 3 -41 -8 -10 -9 -22 -16 -28 -16 -6 0 -13 -6 -16
-12 -2 -7 -8 -10 -12 -6 -12 11 16 40 32 34 8 -3 12 -2 9 3 -3 5 -19 11 -35
13 -21 3 -28 1 -24 -9 3 -7 -2 -13 -11 -13 -8 0 -20 -9 -26 -19 -10 -20 -50
-18 -50 3 0 6 -4 17 -9 25 -8 12 -14 12 -41 1 -21 -9 -34 -10 -41 -3 -7 7 1
13 25 17 23 5 36 13 36 23 0 12 -7 14 -37 8 -21 -4 -56 -14 -78 -22 -22 -8
-63 -20 -90 -27 -28 -6 -65 -22 -83 -34 -18 -13 -45 -27 -59 -31 -15 -4 -29
-13 -31 -20 -3 -9 2 -11 19 -7 l24 6 -22 -11 c-13 -7 -23 -16 -23 -22 0 -5
-13 -7 -29 -4 -29 6 -51 -3 -206 -89 -33 -19 -71 -38 -83 -44 -50 -22 -160
-99 -234 -164 -75 -67 -196 -149 -270 -184 -21 -9 -38 -21 -38 -26 0 -11 -40
-46 -52 -46 -12 0 -10 18 3 22 5 2 7 11 3 21 -6 17 -7 17 -20 -2 -11 -15 -12
-25 -3 -45 11 -24 13 -24 25 -8 7 9 14 12 14 5 0 -24 -12 -42 -26 -36 -9 3
-14 -2 -14 -16 0 -12 -4 -21 -8 -21 -5 0 -15 -11 -22 -25 -7 -13 -17 -22 -22
-19 -5 3 -12 -3 -15 -15 -3 -11 -13 -23 -24 -26 -11 -4 -16 -12 -12 -21 6 -15
2 -16 -67 -19 -29 -1 -44 -6 -43 -13 2 -7 -9 -12 -28 -12 -16 0 -28 -4 -25 -9
3 -4 -7 -6 -22 -4 -21 4 -24 2 -12 -6 16 -11 16 -11 -32 -15 -7 -1 -17 -7 -21
-13 -11 -18 -25 -16 -49 7 -12 11 -17 20 -11 20 6 0 16 -7 23 -15 10 -12 14
-12 26 0 23 22 17 27 -36 24 -27 -2 -53 0 -56 4 -4 4 -2 7 4 7 7 0 11 3 9 8
-1 4 2 8 6 9 8 2 47 43 47 50 0 1 -7 3 -15 3 -8 0 -15 -7 -15 -15 0 -15 -10
-19 -44 -15 -13 1 -17 -3 -13 -14 4 -10 1 -13 -8 -9 -8 3 -12 10 -8 16 4 6 0
8 -11 4 -10 -4 -15 -3 -11 3 11 18 -14 10 -40 -12 -24 -20 -24 -23 -8 -30 15
-5 14 -7 -7 -8 -14 -2 -28 -2 -32 -1 -16 2 -7 -18 10 -22 9 -3 4 -5 -13 -6
-16 -1 -25 -5 -20 -9 6 -4 16 -19 22 -33 11 -25 10 -26 -9 -21 -16 4 -19 2
-13 -8 6 -10 3 -12 -13 -8 -12 4 -22 2 -22 -3 0 -5 15 -9 33 -9 22 0 41 -8 53
-21 18 -20 18 -20 -9 -15 -17 3 -27 0 -28 -7 -1 -7 -3 -43 -4 -82 -2 -40 -7
-71 -14 -73 -6 -2 -11 -8 -11 -13 0 -6 4 -7 10 -4 22 13 8 -10 -20 -35 l-30
-27 2 -293 3 -293 33 27 32 28 0 -25 c0 -14 -7 -28 -16 -31 -13 -5 -15 -13 -9
-39 4 -17 7 -43 6 -57 -1 -19 1 -21 8 -11 8 12 11 10 15 -10 12 -59 12 -93 -1
-108 -7 -9 -12 -20 -11 -26 1 -5 -11 -13 -28 -16 -24 -5 -26 -7 -12 -13 26
-12 48 0 48 25 0 12 5 19 12 17 7 -3 13 -21 13 -41 1 -19 -3 -33 -8 -30 -5 3
-6 -5 -3 -18 l6 -24 -12 23 c-9 19 -9 25 3 33 11 8 10 9 -6 7 -15 -3 -20 -11
-20 -35 -1 -18 -3 -35 -7 -38 -3 -3 -2 -22 3 -42 8 -40 4 -57 -13 -47 -6 4 -5
10 3 15 11 7 10 9 -4 9 -15 0 -17 -7 -14 -40 4 -37 17 -69 17 -42 0 7 4 12 8
12 5 0 6 -48 3 -107 -9 -193 -6 -223 23 -265 l16 -22 0 23 c0 17 4 22 15 17
22 -8 35 33 40 121 5 89 13 141 27 170 13 26 38 20 30 -9 -3 -11 1 -24 9 -29
8 -5 9 -9 3 -9 -14 0 -12 -82 2 -87 6 -2 10 12 9 34 -2 48 3 57 23 41 13 -11
15 -11 10 3 -4 9 -1 22 5 28 6 6 7 11 1 11 -6 0 -15 -5 -22 -12 -9 -9 -12 -6
-12 14 0 15 -3 35 -6 45 -5 14 -4 15 4 4 8 -11 11 -10 15 5 4 16 5 15 6 -4 1
-16 6 -22 19 -20 12 2 16 -3 14 -15 -3 -15 1 -17 19 -12 13 4 29 14 37 22 8 8
17 11 21 7 3 -3 -4 -13 -16 -21 -24 -16 -31 -59 -11 -65 7 -3 -2 -11 -20 -19
-41 -18 -41 -31 -1 -24 28 5 30 3 24 -16 -12 -37 28 -18 48 24 10 20 23 37 28
37 11 0 12 -26 0 -48 -5 -9 -12 -49 -16 -88 -6 -59 -4 -71 8 -71 9 0 13 6 10
14 -3 9 3 13 20 13 22 0 24 4 22 39 -1 24 3 42 10 44 6 3 12 0 13 -6 13 -87
13 -92 2 -77 -10 13 -11 12 -6 -4 4 -10 1 -25 -5 -32 -12 -15 -6 -44 10 -44 9
0 15 27 29 130 4 30 13 64 19 75 6 11 16 43 21 70 18 88 84 293 108 337 7 14
14 33 14 42 0 20 54 108 62 101 3 -3 8 13 11 36 3 23 9 45 14 48 11 8 53 87
53 100 0 6 9 20 20 31 11 11 20 31 20 45 0 14 4 25 8 25 5 0 15 18 22 40 7 21
16 37 21 35 4 -3 10 13 14 34 4 22 12 42 18 44 7 3 23 27 37 53 14 27 35 60
47 74 13 13 30 39 38 57 8 17 19 33 23 35 13 6 92 105 92 116 0 6 4 12 9 14
22 8 92 103 101 137 11 44 89 164 128 199 25 22 35 26 60 23 6 -1 12 3 12 9 0
5 15 10 34 10 19 0 38 5 41 11 4 5 12 8 18 6 7 -2 35 4 62 14 28 9 66 21 85
24 19 4 40 10 45 13 9 6 40 11 93 15 12 1 22 4 22 7 0 4 16 4 36 2 24 -3 39 0
45 9 7 12 9 11 9 -1 0 -12 17 -15 92 -14 51 0 98 -3 104 -8 6 -4 33 -10 60
-11 27 -2 66 -11 88 -21 43 -19 57 -13 59 28 2 26 17 38 17 14 0 -9 4 -8 10 2
8 13 11 13 19 1 7 -11 11 -10 20 7 6 11 11 28 11 36 0 9 7 16 16 16 8 0 12 5
9 10 -3 6 -1 10 4 10 6 0 11 -7 11 -15 0 -8 6 -12 14 -9 15 6 26 -23 26 -68 0
-18 5 -28 15 -28 14 0 19 -14 18 -47 -1 -17 64 -17 70 0 4 9 6 9 6 0 1 -7 10
-13 21 -13 11 0 20 -6 20 -14 0 -12 7 -11 38 4 37 18 37 18 42 -3 4 -16 8 -18
14 -9 6 10 11 10 22 1 8 -6 27 -9 44 -5 29 5 30 4 25 -22 -3 -15 -2 -21 1 -14
8 17 45 16 38 -1 -4 -10 3 -12 26 -9 17 2 30 10 30 19 0 8 4 12 9 9 5 -4 8
-14 6 -24 -2 -9 -4 -25 -4 -35 -1 -10 -5 -16 -10 -13 -5 3 -11 -1 -15 -9 -6
-16 -56 -21 -56 -5 0 5 6 7 14 4 8 -3 17 0 21 6 4 7 -3 9 -24 5 -17 -3 -31 -2
-30 2 4 22 -3 32 -16 27 -11 -4 -15 1 -15 17 0 18 -3 20 -9 10 -5 -7 -6 -21
-4 -31 6 -21 86 -100 102 -100 6 0 11 -7 11 -16 0 -19 48 -86 122 -168 21 -22
38 -44 38 -48 0 -5 5 -8 11 -8 6 0 9 7 5 15 -3 8 0 15 5 15 7 0 9 -11 6 -27
-4 -23 3 -35 39 -72 24 -24 44 -48 44 -52 0 -5 6 -9 13 -9 15 -1 121 -216 112
-230 -3 -5 1 -10 9 -10 9 0 16 -4 16 -10 0 -5 -6 -10 -12 -10 -7 0 -2 -7 10
-16 13 -9 21 -22 18 -30 -3 -8 0 -14 7 -14 7 0 20 -14 30 -32 14 -25 15 -33 5
-40 -10 -7 -10 -9 2 -5 12 3 14 17 12 60 -2 36 0 57 7 57 6 0 11 -11 11 -25 0
-14 5 -25 10 -25 6 0 10 -7 10 -16 0 -8 -4 -12 -10 -9 -6 4 -10 -7 -10 -26 0
-18 -8 -41 -17 -52 -10 -11 -12 -17 -5 -13 6 4 12 2 12 -3 0 -6 -7 -11 -16
-11 -10 0 -14 -6 -10 -15 3 -9 0 -15 -8 -15 -7 0 -19 -7 -26 -15 -10 -12 -15
-12 -35 1 -13 9 -25 25 -27 36 -2 12 -9 23 -16 24 -7 1 -8 0 -2 -3 14 -7 12
-23 -3 -23 -22 0 -69 62 -112 144 -22 43 -49 86 -61 95 -23 18 -35 72 -24 111
5 20 -1 33 -29 65 -20 22 -40 40 -46 40 -6 0 -23 8 -38 18 -15 10 -27 13 -27
8 0 -5 7 -11 15 -15 24 -9 18 -36 -7 -36 -21 -1 -21 -2 -5 -11 9 -6 15 -14 12
-20 -4 -5 0 -9 8 -9 11 0 13 -7 9 -22 -4 -17 -2 -20 12 -15 12 5 16 3 13 -5
-5 -16 20 -68 34 -68 6 0 7 -4 4 -10 -8 -12 22 -70 36 -70 6 0 9 -6 6 -13 -6
-17 19 -77 32 -77 6 0 13 -16 17 -35 3 -20 12 -35 20 -35 8 0 14 -10 14 -25 0
-14 9 -34 20 -45 11 -11 20 -28 20 -38 0 -10 5 -23 12 -30 9 -9 8 -12 -8 -12
-24 0 -56 35 -74 80 -8 19 -29 61 -47 93 -18 33 -33 61 -33 64 0 3 -26 48 -57
101 -32 54 -67 113 -78 133 -34 60 -79 119 -92 119 -21 0 -16 -13 35 -91 27
-41 62 -99 79 -129 17 -30 44 -77 61 -105 17 -27 58 -103 92 -168 47 -91 58
-121 51 -135 -10 -16 -10 -16 -11 1 0 10 -15 37 -33 60 -38 47 -62 87 -103
167 -16 30 -34 59 -41 63 -7 4 -13 14 -13 21 0 7 -11 25 -25 40 -14 15 -25 30
-25 34 0 11 -60 75 -65 70 -10 -10 9 -49 21 -44 7 3 16 0 20 -6 4 -7 3 -8 -4
-4 -8 5 -12 -1 -12 -15 0 -18 -5 -14 -30 22 -83 120 -120 165 -146 179 -15 9
-40 37 -54 62 -32 58 -49 78 -66 78 -8 0 -14 5 -14 10 0 6 -7 10 -15 10 -7 0
-18 6 -22 14 -9 14 -53 40 -53 31 0 -8 82 -97 124 -134 31 -29 126 -145 126
-155 0 -3 20 -31 44 -60 24 -30 66 -87 92 -127 104 -155 114 -169 123 -169 5
0 13 -15 16 -32 4 -18 34 -84 66 -146 33 -61 59 -124 59 -138 0 -25 -13 -51
-65 -134 -25 -40 -178 -310 -184 -325 -2 -5 -21 -35 -41 -65 -20 -30 -40 -62
-44 -70 -4 -8 -17 -31 -29 -51 -21 -34 -98 -160 -142 -233 -11 -18 -36 -58
-55 -89 -19 -32 -42 -71 -51 -88 -10 -16 -28 -47 -41 -67 -14 -20 -36 -55 -51
-77 -32 -49 -61 -116 -58 -132 1 -7 -3 -13 -9 -13 -6 0 -14 -8 -17 -17 -4 -10
-21 -38 -37 -63 -50 -75 -56 -84 -70 -115 -8 -16 -28 -47 -45 -69 -17 -21 -31
-42 -31 -47 0 -4 -16 -25 -35 -46 -19 -21 -35 -42 -35 -47 0 -5 -16 -28 -35
-52 -19 -23 -35 -49 -35 -58 0 -8 -9 -30 -20 -49 -17 -28 -21 -55 -23 -163
l-2 -129 -53 -128 c-44 -108 -52 -138 -52 -191 0 -67 -17 -104 -78 -168 l-26
-28 56 0 c54 0 57 1 79 38 13 20 58 76 101 123 105 114 194 232 228 300 16 30
36 61 45 69 10 8 12 16 5 20 -7 4 -5 35 6 99 9 51 14 104 11 117 -3 19 7 34
52 75 83 75 111 103 111 111 0 12 83 131 111 158 14 15 29 38 33 53 3 15 13
27 21 27 8 0 15 7 15 15 0 7 6 18 14 22 7 4 18 18 25 31 6 12 16 22 21 22 5 0
10 -10 12 -22 4 -23 -1 -31 -42 -75 -11 -13 -20 -30 -20 -38 0 -9 -6 -18 -14
-21 -7 -3 -19 -23 -26 -45 -7 -21 -16 -39 -21 -39 -4 0 -10 -12 -14 -27 -3
-16 -12 -35 -19 -43 -42 -49 -86 -123 -91 -156 -4 -22 -14 -49 -21 -62 -10
-15 -12 -28 -6 -40 5 -9 7 -23 5 -30 -4 -9 2 -11 21 -6 26 6 36 -8 15 -22 -8
-4 -7 -9 2 -15 10 -6 6 -9 -12 -9 -16 0 -26 -6 -26 -15 0 -8 3 -15 7 -15 10 0
57 36 100 76 40 36 180 134 225 156 17 8 50 18 75 22 24 4 48 12 51 18 6 9 12
8 23 -1 14 -12 16 -10 16 14 0 20 4 26 15 21 9 -3 15 0 15 9 0 20 21 30 31 14
6 -11 9 -8 9 8 0 12 5 25 12 29 7 4 8 3 4 -4 -12 -19 3 -35 20 -21 17 14 18 5
3 -23 -9 -17 -13 -18 -20 -7 -6 9 -7 -6 -4 -40 5 -59 12 -73 25 -51 6 10 9 5
8 -17 -1 -24 -5 -30 -16 -25 -12 4 -14 0 -9 -17 5 -20 3 -22 -19 -18 -20 4
-23 1 -19 -14 7 -22 -19 -27 -29 -6 -3 6 -4 0 -1 -15 5 -26 4 -27 -25 -22 -26
6 -30 4 -30 -15 0 -11 -3 -20 -7 -19 -5 2 -8 0 -8 -4 0 -4 -10 -15 -22 -23
-17 -12 -22 -24 -20 -50 1 -23 7 -34 16 -32 8 1 16 -3 18 -9 2 -7 -7 -10 -23
-8 -41 4 -56 -5 -50 -32 5 -19 2 -24 -13 -24 -11 0 -21 -8 -23 -17 -2 -13 -6
-14 -11 -6 -4 7 2 20 15 32 12 12 17 21 11 21 -19 0 -55 -52 -44 -63 7 -7 7
-17 0 -29 -5 -10 -7 -23 -4 -28 3 -6 -3 -10 -15 -10 -14 0 -21 -6 -19 -18 4
-47 -1 -71 -16 -66 -10 4 -15 0 -15 -15 0 -12 -4 -21 -9 -21 -6 0 -22 -11 -37
-25 -30 -27 -49 -32 -58 -12 -3 6 -3 2 0 -10 4 -18 1 -23 -15 -23 -11 0 -22
-9 -26 -19 -3 -11 -20 -28 -38 -39 -18 -10 -52 -42 -76 -70 l-43 -52 316 0
c274 0 316 2 316 15 0 8 6 15 13 15 6 1 25 11 40 24 24 20 33 21 53 12 30 -14
30 -20 -2 -45 l-27 -21 449 0 c445 0 450 0 464 21 8 12 32 44 53 72 21 29 50
72 65 97 14 25 29 47 33 50 3 3 19 29 34 58 15 28 30 52 34 52 4 0 18 19 31
42 32 60 48 77 69 71 23 -6 35 21 20 45 -14 23 24 90 59 103 20 8 23 14 18 35
-5 20 6 47 50 122 32 54 77 131 101 172 24 41 48 82 53 90 12 19 120 238 131
265 10 23 51 142 79 227 11 31 24 65 29 75 17 31 168 483 191 573 12 45 26 70
40 70 23 0 97 -247 114 -380 9 -71 14 -87 18 -65 12 57 -9 175 -68 388 -15 55
-16 71 -6 87 7 11 12 27 12 35 0 8 5 15 10 15 6 0 15 11 20 25 19 49 78 26
115 -45 17 -32 13 -50 -10 -50 -44 0 -33 -94 20 -174 67 -101 200 -207 338
-271 59 -26 84 -46 139 -107 69 -77 100 -96 121 -74 9 11 14 9 24 -8 7 -12 16
-29 19 -38 7 -19 24 -25 24 -8 0 5 6 7 14 4 8 -3 18 7 26 26 7 17 18 29 24 27
12 -4 47 -96 73 -193 13 -47 14 -67 6 -72 -18 -11 -28 -82 -12 -83 8 -1 20 -2
27 -3 25 -2 56 -95 161 -481 58 -210 106 -434 142 -658 22 -130 24 -137 46
-137 13 0 23 6 23 13 0 6 -12 86 -25 177 -52 344 -83 579 -90 680 -10 142
-104 550 -201 865 -14 44 -27 88 -30 97 -4 13 24 47 96 118 l101 100 32 -16
c18 -9 64 -38 102 -64 99 -66 192 -113 210 -107 22 9 18 34 -7 52 -54 37 -100
65 -174 104 -129 68 -123 54 -74 168 54 127 60 157 30 173 -47 25 -129 16
-228 -24 -95 -38 -119 -40 -156 -13 -19 14 -17 16 25 34 51 23 118 92 150 154
12 24 35 56 51 71 29 27 30 48 4 48 -18 0 -59 -47 -52 -59 4 -5 2 -12 -4 -16
-5 -3 -10 -1 -10 5 0 13 -63 -12 -102 -41 -33 -23 -33 -24 -8 25 28 56 15 75
-47 69 -36 -4 -52 -1 -62 10 -18 23 -10 60 16 72 12 5 26 20 32 33 13 27 5
117 -15 182 -16 53 -38 265 -30 287 4 10 15 14 32 10 41 -7 79 31 76 77 l-3
36 50 0 c68 0 98 13 122 54 17 29 28 36 64 42 67 10 74 44 28 144 -15 33 -27
81 -31 120 -7 92 -36 146 -96 175 -59 28 -103 228 -46 210 10 -3 25 1 33 10
17 16 62 21 52 5 -3 -5 -2 -10 2 -10 11 0 34 -37 38 -61 2 -11 0 -19 -5 -19
-16 0 -39 42 -32 59 5 14 3 14 -11 3 -15 -13 -15 -15 -1 -29 11 -12 12 -18 4
-23 -15 -9 -3 -16 33 -18 23 -2 27 2 27 27 0 16 -7 34 -14 41 -8 6 -20 27 -26
45 -7 23 -20 37 -39 43 -20 7 -32 21 -41 46 -6 20 -15 36 -20 36 -31 0 6 105
51 146 18 16 22 15 76 -8 32 -14 72 -29 88 -33 53 -11 75 -32 75 -69 0 -18 16
-77 35 -132 19 -54 35 -107 35 -116 0 -9 11 -30 25 -46 14 -17 25 -36 25 -44
0 -8 28 -36 61 -62 34 -27 57 -51 52 -55 -6 -3 -13 -17 -17 -31 -4 -14 -4 -20
1 -15 11 13 63 14 63 0 0 -13 81 -16 98 -3 8 7 17 6 28 -3 15 -12 16 -11 11 6
-9 29 0 38 78 78 53 27 98 63 185 149 63 62 122 113 130 113 8 0 16 9 19 20 3
17 18 39 69 105 2 3 8 -3 14 -13 20 -36 98 -44 98 -10 0 9 6 13 14 10 9 -4 17
2 21 14 4 10 10 19 13 19 4 0 16 16 26 35 15 28 22 33 33 23 11 -9 13 -6 8 21
-5 31 -48 80 -70 81 -6 0 -27 13 -46 30 -34 28 -36 33 -42 106 -6 76 -7 78
-53 125 -27 27 -54 49 -61 49 -7 0 -27 13 -45 29 -19 16 -59 41 -91 56 -80 38
-135 94 -143 145 -9 56 -57 120 -90 120 -14 0 -35 -5 -46 -11 -26 -14 -120
-35 -166 -38 -18 -1 -44 6 -58 15 -24 16 -26 16 -57 -14 -27 -26 -42 -32 -85
-34 l-51 -2 -7 -43 c-3 -24 -10 -43 -14 -43 -4 0 -25 -18 -46 -40 -30 -31 -47
-40 -73 -40 -27 0 -32 -3 -27 -17 4 -9 1 -20 -6 -26 -8 -5 -3 -6 16 -2 42 9
116 -4 116 -22 0 -8 -5 -11 -12 -7 -10 5 -10 4 -1 -6 10 -11 15 -11 29 0 14
12 18 11 35 -10 26 -35 33 -67 20 -96 -14 -31 -28 -30 -53 2 -15 18 -27 24
-42 20 -15 -4 -31 5 -55 29 -19 19 -39 35 -45 35 -19 0 -47 38 -33 44 9 3 8 8
-3 16 -13 9 -13 10 2 8 9 -2 17 2 17 7 1 6 -6 10 -14 9 -55 -3 -65 -5 -65 -14
0 -5 9 -10 19 -10 13 0 19 -6 18 -19 -1 -15 -5 -17 -13 -10 -9 7 -19 6 -32 -2
-12 -8 -27 -9 -38 -4 -27 12 -54 14 -54 4 0 -11 -93 1 -101 13 -3 5 -10 8 -15
6 -17 -6 -57 30 -51 46 4 10 -1 20 -13 26 -16 9 -20 7 -20 -7 0 -16 -1 -16
-13 1 -7 9 -17 17 -22 16 -6 -2 -21 -2 -35 -1 -20 1 -22 3 -10 11 8 5 11 10 5
10 -5 0 -17 -5 -25 -10 -23 -14 -49 22 -62 86 l-11 57 76 74 c42 41 77 79 77
85 0 6 -14 33 -31 60 -23 36 -29 55 -25 74 6 22 11 25 34 20 15 -3 78 -14 140
-23 l112 -17 -6 -36 c-4 -19 -12 -38 -19 -42 -7 -5 -30 -34 -50 -65 -21 -32
-70 -92 -110 -133 -72 -74 -75 -79 -66 -133 2 -17 21 5 21 26 0 18 2 19 10 7
9 -13 11 -13 19 0 6 8 14 11 18 6 4 -5 2 -11 -4 -13 -7 -3 -13 -11 -13 -19 0
-9 4 -12 10 -9 5 3 10 1 10 -4 0 -21 28 -10 47 18 18 29 127 126 167 148 31
19 63 16 97 -9 23 -17 34 -20 47 -12 11 7 26 8 42 2 14 -5 47 -11 73 -13 l48
-4 -26 30 c-14 17 -25 36 -25 42 0 7 -13 28 -28 47 -71 86 -61 105 31 62 34
-16 93 -37 132 -47 38 -9 96 -30 128 -47 60 -30 90 -30 101 -1 10 26 -23 51
-94 69 -35 9 -80 27 -100 40 -19 14 -93 43 -165 65 -134 43 -232 86 -254 113
-21 25 -157 108 -278 171 -118 61 -131 76 -93 110 26 24 33 50 20 74 -8 16 -7
22 9 30 19 11 179 8 292 -4 51 -6 72 -4 97 9 36 19 55 47 50 79 -1 13 8 38 21
56 23 32 26 33 75 27 102 -13 120 -7 124 43 2 26 -4 35 -30 51 -18 11 -42 20
-53 20 -12 0 -77 25 -145 56 -142 64 -236 84 -403 84 -66 0 -110 5 -135 16
-20 8 -88 26 -151 40 -63 14 -118 27 -122 29 -4 3 -47 14 -96 24 -48 10 -113
28 -143 39 -30 11 -122 32 -205 46 -82 15 -181 38 -220 51 -38 13 -99 31 -135
41 -71 18 -109 50 -145 120 -11 21 -36 48 -55 60 -19 13 -51 38 -70 57 -42 40
-88 74 -155 112 -27 16 -68 48 -91 71 -135 137 -494 193 -894 139 -81 -11
-149 -13 -232 -9 -129 8 -187 -5 -238 -52 -18 -16 -71 -34 -197 -64 -95 -23
-176 -41 -180 -40 -5 1 -7 7 -5 13 5 16 -18 25 -43 18 -30 -8 -77 -49 -70 -61
11 -18 -192 -65 -212 -48 -16 13 -7 28 17 28 24 0 124 58 175 103 35 30 38 36
26 51 -12 14 -12 16 3 10 19 -7 22 16 4 34 -21 21 -65 13 -116 -23 -45 -31
-54 -33 -84 -24 -18 5 -66 7 -107 3 -56 -5 -72 -4 -66 5 4 7 16 16 26 19 17 7
18 10 6 26 -13 17 -15 17 -48 -3 -19 -11 -44 -21 -57 -21 -12 0 -59 -14 -103
-31 -71 -28 -84 -30 -110 -18 -17 6 -37 23 -46 35 -9 14 -33 28 -57 35 -36 9
-107 42 -225 104 -20 11 -65 20 -106 23 -62 4 -80 1 -150 -27 -43 -18 -106
-50 -139 -72 l-61 -41 -110 4 c-127 5 -168 19 -173 60 -3 26 -5 27 -51 21 -48
-5 -50 -4 -117 53 -106 88 -104 82 -54 180 23 46 45 84 49 84 16 0 93 84 106
117 23 55 20 83 -10 83 -18 0 -34 -13 -59 -47z m1809 -561 c6 -4 11 -11 12
-17 1 -5 5 -18 9 -29 6 -16 4 -17 -16 -11 -18 6 -22 4 -17 -9 3 -8 2 -18 -3
-21 -6 -4 -10 3 -10 13 0 11 -7 25 -15 32 -14 12 -14 15 1 31 19 21 24 22 39
11z m-1497 -17 c10 -8 -15 -35 -36 -38 -15 -2 -5 -5 23 -6 28 -1 60 -4 73 -7
18 -5 21 -3 16 10 -3 9 -11 16 -18 15 -31 -4 -37 1 -26 21 11 21 60 29 60 10
0 -7 7 -7 21 0 11 7 23 9 27 6 3 -3 0 -6 -6 -6 -6 0 -13 -14 -17 -30 -4 -17
-11 -28 -16 -24 -23 14 -6 -15 21 -34 22 -17 30 -31 30 -53 0 -27 6 -33 55
-54 85 -38 66 -56 -23 -24 -13 5 -39 9 -59 9 -20 0 -46 9 -60 20 -14 11 -40
20 -58 20 -19 0 -39 8 -49 19 -10 10 -32 22 -49 25 -18 4 -43 16 -56 27 -21
17 -22 22 -10 30 7 5 29 9 47 9 20 0 31 4 27 10 -3 6 4 14 17 19 13 6 17 10
11 10 -7 1 -13 8 -13 16 0 11 8 13 33 8 17 -3 33 -7 35 -8z m2727 -114 c388
-33 731 -187 825 -372 l22 -42 -36 7 c-20 4 -80 25 -133 48 -145 60 -197 76
-313 93 -405 62 -392 57 -618 208 -40 26 -51 45 -35 60 9 10 158 8 288 -2z
m-849 -28 c-10 -10 -19 5 -10 18 6 11 8 11 12 0 2 -7 1 -15 -2 -18z m44 -9 c0
-8 -5 -12 -10 -9 -6 4 -8 11 -5 16 9 14 15 11 15 -7z m-220 -4 c0 -5 -5 -10
-11 -10 -5 0 -7 5 -4 10 3 6 8 10 11 10 2 0 4 -4 4 -10z m55 -30 c-27 -12 -35
-12 -35 0 0 6 12 10 28 9 24 0 25 -1 7 -9z m383 -15 c51 -14 108 -25 126 -25
17 0 36 -4 42 -10 5 -5 60 -34 122 -65 61 -30 112 -56 112 -58 0 -7 -207 6
-274 19 -43 8 -110 14 -150 15 -39 0 -93 4 -121 10 -164 30 -229 21 -291 -42
-31 -32 -45 -39 -77 -39 -30 0 -40 -4 -44 -20 -3 -11 -23 -26 -50 -36 -24 -10
-62 -30 -84 -46 -41 -30 -72 -31 -83 -3 -3 9 5 20 22 29 15 8 37 26 49 40 14
16 38 28 64 32 l41 7 -6 38 -6 38 57 11 c32 7 105 27 163 46 133 42 272 83
285 83 6 1 52 -10 103 -24z m777 -359 c236 -52 395 -107 646 -224 31 -15 38
-24 48 -65 6 -27 11 -61 11 -77 0 -16 5 -30 12 -32 18 -6 -19 -54 -53 -68 -26
-11 -39 -9 -109 19 -43 17 -84 31 -90 31 -14 0 -257 123 -355 179 -70 41 -209
111 -220 111 -2 0 -36 15 -77 34 -40 18 -86 36 -103 39 -124 24 -146 29 -141
35 4 3 28 13 54 23 39 15 69 17 182 13 74 -3 162 -11 195 -18z m-584 -111
c129 -32 186 -55 304 -120 123 -68 342 -178 452 -227 79 -35 82 -38 88 -75 11
-69 25 -110 51 -148 16 -23 20 -35 11 -32 -10 4 -17 -2 -21 -16 -4 -16 -8 -19
-17 -10 -7 7 -21 8 -38 4 -14 -4 -73 -7 -131 -7 -97 1 -114 5 -225 45 -154 56
-293 103 -423 142 -71 21 -116 41 -145 65 -61 49 -105 70 -172 84 -54 11 -144
45 -185 70 -8 6 -29 16 -47 24 -34 15 -146 144 -140 161 2 5 18 10 35 11 17 0
34 3 38 7 3 3 19 3 35 0 16 -3 35 0 43 6 10 8 16 9 21 1 9 -15 166 -3 257 20
97 24 98 24 209 -5z m-1281 -145 c0 -5 -4 -10 -10 -10 -5 0 -10 5 -10 10 0 6
5 10 10 10 6 0 10 -4 10 -10z m33 -14 c4 -10 1 -13 -8 -9 -8 3 -12 9 -9 14 7
12 11 11 17 -5z m-13 -28 c0 -6 -6 -5 -15 2 -8 7 -15 14 -15 16 0 2 7 1 15 -2
8 -4 15 -11 15 -16z m3235 -3 c105 -9 240 -23 300 -31 61 -9 163 -18 227 -21
111 -5 118 -7 143 -33 23 -25 25 -32 17 -62 -7 -26 -6 -42 5 -63 13 -23 13
-34 2 -67 -12 -36 -38 -71 -40 -52 -6 73 -12 91 -39 117 -24 22 -40 27 -78 27
-27 0 -57 -7 -68 -15 -29 -22 -51 -18 -94 16 -51 42 -79 37 -105 -19 -22 -45
-92 -102 -127 -102 -29 0 -123 57 -137 84 -24 43 -101 51 -101 10 0 -6 -7 -17
-15 -24 -8 -7 -15 -21 -15 -32 0 -19 -4 -20 -57 -13 -32 4 -85 18 -117 32 -53
22 -64 23 -104 13 -53 -13 -66 -6 -33 19 21 16 24 27 26 96 2 60 6 81 19 90
25 19 91 26 122 15 23 -9 31 -7 48 10 11 11 23 20 26 20 3 0 91 -7 195 -15z
m-3201 -44 c-6 -6 -24 19 -24 34 1 6 7 1 15 -9 8 -11 12 -22 9 -25z m-24 -4
c0 -5 -4 -5 -10 -2 -5 3 -10 14 -10 23 0 15 2 15 10 2 5 -8 10 -19 10 -23z
m2508 -339 c39 -24 40 -35 5 -49 -91 -36 -193 -53 -238 -41 -18 5 -18 6 5 12
36 9 52 45 47 111 l-5 57 77 -35 c42 -19 91 -44 109 -55z m577 -334 c35 -23
31 -34 -10 -34 -27 0 -35 4 -35 18 0 17 8 32 17 32 2 0 15 -7 28 -16z m225
-146 c0 -7 14 -40 31 -73 28 -55 29 -61 13 -70 -9 -5 -29 -20 -44 -32 l-27
-22 -46 68 c-26 37 -47 75 -47 83 0 9 20 24 48 36 56 24 72 26 72 10z m1315
-28 c-3 -5 -12 -10 -18 -10 -7 0 -6 4 3 10 19 12 23 12 15 0z m-2691 -16 c9
-23 8 -24 -13 -24 -14 0 -18 5 -14 20 6 24 19 26 27 4z m19 -41 c-7 -2 -13
-11 -13 -19 0 -8 -7 -14 -15 -14 -21 0 -19 28 3 33 23 6 40 7 25 0z m58 -26
c-13 -13 -26 -3 -16 12 3 6 11 8 17 5 6 -4 6 -10 -1 -17z m143 -43 c9 -3 14
-10 11 -15 -7 -10 -35 0 -35 12 0 11 3 11 24 3z m57 -29 c4 -72 3 -83 -3 -79
-3 2 -11 -8 -16 -23 -8 -22 -9 -16 -5 30 4 39 2 57 -6 57 -6 0 -11 5 -11 11 0
5 5 7 10 4 6 -3 10 1 10 9 0 27 20 18 21 -9z m-41 -37 c0 -6 -7 -5 -15 2 -8 7
-15 17 -15 22 0 6 7 5 15 -2 8 -7 15 -17 15 -22z m1499 -4 c5 -5 11 -37 13
-72 2 -35 9 -67 15 -70 16 -11 25 -50 13 -57 -6 -4 -8 -16 -4 -27 6 -19 3 -20
-30 -15 -27 4 -36 2 -36 -9 0 -8 9 -14 19 -14 37 0 61 -32 64 -85 1 -36 -2
-49 -10 -47 -7 1 -13 -7 -13 -18 0 -13 -7 -20 -18 -20 -18 0 -82 -55 -82 -70
0 -4 -9 -10 -20 -13 -18 -4 -25 4 -45 50 -14 31 -25 65 -25 77 0 37 27 65 68
68 36 3 37 5 43 48 3 24 2 49 -3 55 -34 41 -76 103 -82 120 -11 36 -10 107 2
114 15 9 119 -2 131 -15z m-3338 -103 c-6 -10 -9 -20 -6 -22 2 -2 -8 -5 -21
-5 -28 -2 -31 8 -8 30 23 23 48 21 35 -3z m-171 -21 c0 -5 -5 -10 -11 -10 -5
0 -7 5 -4 10 3 6 8 10 11 10 2 0 4 -4 4 -10z m70 -2 c0 -4 -7 -8 -15 -8 -9 0
-15 -9 -15 -22 0 -21 -1 -21 -17 -6 -12 13 -14 20 -5 30 12 15 52 19 52 6z
m1760 2 c0 -5 -5 -10 -11 -10 -5 0 -7 5 -4 10 3 6 8 10 11 10 2 0 4 -4 4 -10z
m-2052 -26 c12 -8 22 -22 22 -30 0 -8 9 -14 20 -14 11 0 20 -5 20 -10 0 -6 11
-8 25 -4 17 4 25 2 25 -7 0 -10 3 -10 11 -2 6 6 18 9 25 6 8 -3 14 -1 14 5 0
6 10 8 23 4 34 -8 52 -42 22 -42 -8 0 -15 8 -15 17 0 9 -3 13 -7 9 -5 -4 -8
-21 -8 -37 0 -23 4 -28 18 -23 12 4 17 0 17 -16 0 -17 4 -20 20 -15 16 5 20 2
20 -19 0 -30 17 -44 23 -19 3 14 5 12 11 -8 9 -31 61 -66 69 -47 3 7 6 3 6
-10 1 -19 5 -22 21 -17 14 5 20 2 20 -9 0 -9 5 -16 10 -16 6 0 10 5 10 10 0 6
5 10 10 10 6 0 10 -7 10 -16 0 -11 6 -14 20 -9 27 9 25 -6 -5 -28 -24 -18 -51
-15 -40 4 10 15 -12 10 -25 -6 -18 -22 -28 -18 -32 12 -2 19 -10 29 -23 31
-17 3 -17 1 -5 -7 13 -10 13 -12 0 -20 -8 -5 -26 -7 -41 -4 -26 5 -48 -10 -30
-21 5 -4 12 -2 16 4 13 22 26 9 20 -20 -6 -27 -2 -32 41 -60 71 -45 82 -46
112 -13 25 28 62 49 62 37 0 -9 -27 -33 -32 -28 -3 2 -11 -3 -18 -11 -10 -13
-11 -18 -1 -28 10 -9 12 -9 9 3 -2 10 3 14 15 12 10 -2 17 4 18 15 1 10 5 -2
9 -27 9 -52 6 -58 -15 -40 -8 7 -25 10 -40 6 -14 -4 -25 -3 -25 2 0 13 -89 34
-170 41 -69 6 -75 8 -78 30 -4 23 -6 24 -70 17 -37 -3 -96 -15 -132 -26 -36
-11 -77 -20 -92 -20 -15 0 -47 -6 -70 -14 -24 -8 -78 -18 -120 -21 -77 -7 -78
-7 -78 16 0 14 9 40 20 59 11 19 29 53 39 75 10 22 40 67 67 100 38 46 49 68
50 96 0 43 28 81 91 126 52 37 78 41 111 17z m332 6 c0 -5 -8 -10 -17 -10 -15
0 -16 2 -3 10 19 12 20 12 20 0z m27 -32 c2 -17 0 -19 -7 -8 -5 8 -6 18 -4 22
8 12 10 10 11 -14z m-107 -29 c0 -6 -4 -7 -10 -4 -5 3 -10 11 -10 16 0 6 5 7
10 4 6 -3 10 -11 10 -16z m4390 -4 c0 -10 -10 -15 -27 -15 -27 1 -27 1 -9 15
25 19 36 19 36 0z m-4835 -13 c-3 -3 -11 0 -18 7 -9 10 -8 11 6 5 10 -3 15 -9
12 -12z m2379 -14 c-9 -14 -23 2 -17 18 4 12 8 13 14 3 4 -7 5 -17 3 -21z
m-1897 6 c-3 -3 -12 -4 -19 -1 -8 3 -5 6 6 6 11 1 17 -2 13 -5z m33 -24 c0 -5
-5 -10 -11 -10 -5 0 -7 5 -4 10 3 6 8 10 11 10 2 0 4 -4 4 -10z m1090 -16 c0
-2 -7 -4 -15 -4 -8 0 -15 4 -15 10 0 5 7 7 15 4 8 -4 15 -8 15 -10z m-1084
-250 c-4 -9 -9 -15 -11 -12 -3 3 -3 13 1 22 4 9 9 15 11 12 3 -3 3 -13 -1 -22z
m87 -6 c-4 -8 -33 -11 -33 -4 0 2 3 11 6 20 5 12 9 13 19 3 7 -7 11 -15 8 -19z
m65 20 c17 -17 15 -28 -4 -28 -8 0 -12 5 -9 10 3 6 1 10 -4 10 -6 0 -11 5 -11
10 0 14 13 13 28 -2z m-25 -39 c14 -10 -7 -19 -21 -10 -8 5 -10 15 -6 26 6 15
9 16 12 4 3 -7 9 -17 15 -20z m-52 -32 c-10 -9 -11 -8 -5 6 3 10 9 15 12 12 3
-3 0 -11 -7 -18z m3079 -46 c15 -29 12 -61 -5 -61 -19 0 -40 43 -32 64 9 22
24 20 37 -3z m-2927 -20 c3 -14 1 -18 -9 -14 -8 3 -14 11 -14 19 0 21 17 17
23 -5z m717 -325 c0 -3 -4 -8 -10 -11 -5 -3 -10 -1 -10 4 0 6 5 11 10 11 6 0
10 -2 10 -4z m13 -58 c-18 -17 -21 -18 -49 -3 l-29 15 30 1 c17 1 36 1 44 0 8
-2 10 2 5 10 -5 8 -3 10 5 4 10 -6 8 -12 -6 -27z m2445 7 c2 -11 27 -45 56
-75 80 -83 126 -142 120 -152 -7 -12 35 -127 60 -165 21 -30 21 -38 13 -120
-5 -48 -6 -171 -4 -273 6 -195 27 -344 87 -627 16 -79 30 -145 30 -148 0 -2
-13 -2 -30 2 -23 4 -30 2 -30 -10 0 -10 -6 -14 -14 -11 -9 3 -15 -5 -20 -27
-5 -28 -8 -30 -23 -18 -16 13 -17 12 -5 -3 7 -9 39 -36 70 -60 31 -24 63 -50
69 -58 17 -20 31 -70 44 -154 10 -63 9 -71 -9 -96 -26 -34 -52 -96 -52 -122 0
-11 9 -22 20 -25 24 -6 24 -10 5 -57 -8 -19 -16 -54 -17 -76 -1 -36 -11 -52
-20 -32 -1 4 -32 32 -68 62 -74 63 -82 72 -107 120 -38 73 -78 137 -116 182
-37 45 -40 54 -52 155 -19 148 -49 226 -126 330 -22 29 -39 54 -39 57 0 3 11
13 24 21 20 13 29 14 46 5 35 -18 50 3 50 70 0 44 7 71 30 116 79 157 77 401
-4 416 -15 3 -29 1 -32 -3 -3 -5 7 -9 21 -9 15 0 24 -4 20 -10 -3 -5 -1 -10 4
-10 20 0 11 -17 -16 -30 -16 -7 -31 -13 -35 -12 -5 1 -8 -3 -8 -9 0 -8 -4 -8
-13 -1 -11 9 -16 1 -27 -40 l-13 -52 -14 44 c-21 64 -26 327 -9 405 9 41 11
79 6 120 -14 104 -12 133 8 131 9 0 16 5 14 13 -5 24 8 48 34 59 30 14 37 15
30 3 -8 -13 21 -34 39 -27 22 8 8 33 -23 39 -20 4 -30 15 -40 44 -34 97 -24
146 31 141 23 -2 33 -9 35 -23z m-2538 -5 c0 -5 -2 -10 -4 -10 -3 0 -8 5 -11
10 -3 6 -1 10 4 10 6 0 11 -4 11 -10z m160 -1 c0 -15 -18 -19 -23 -6 -3 8 1
14 9 14 8 0 14 -4 14 -8z m-3070 -3 c0 -3 -4 -8 -10 -11 -5 -3 -10 -1 -10 4 0
6 5 11 10 11 6 0 10 -2 10 -4z m3038 -21 c-3 -3 -9 2 -12 12 -6 14 -5 15 5 6
7 -7 10 -15 7 -18z m-83 5 c3 -5 -1 -10 -10 -10 -9 0 -13 5 -10 10 3 6 8 10
10 10 2 0 7 -4 10 -10z m148 -7 c-7 -2 -19 -2 -25 0 -7 3 -2 5 12 5 14 0 19
-2 13 -5z m-106 -27 c-3 -8 -1 -17 6 -19 7 -2 -1 -3 -18 -1 -16 3 -34 9 -40
16 -7 8 -6 9 2 4 6 -3 14 -2 18 4 10 16 38 12 32 -4z m81 2 c-2 -7 12 -15 32
-18 34 -6 34 -6 8 -11 -20 -5 -33 0 -49 17 -19 20 -20 24 -6 24 9 0 16 -5 15
-12z m67 2 c3 -5 -1 -10 -9 -10 -9 0 -16 5 -16 10 0 6 4 10 9 10 6 0 13 -4 16
-10z m38 -27 c-7 -2 -19 -2 -25 0 -7 3 -2 5 12 5 14 0 19 -2 13 -5z m67 -3 c0
-5 -2 -10 -4 -10 -3 0 -8 5 -11 10 -3 6 -1 10 4 10 6 0 11 -4 11 -10z m-3210
-10 c8 -5 11 -10 5 -10 -5 0 -17 5 -25 10 -8 5 -10 10 -5 10 6 0 17 -5 25 -10z
m54 -5 c-3 -8 -14 -17 -25 -20 -21 -7 -25 -20 -9 -30 6 -3 10 -12 10 -18 0 -7
-4 -6 -10 3 -8 12 -12 12 -18 2 -7 -10 -11 -10 -21 1 -9 12 -4 20 31 46 48 36
49 36 42 16z m864 4 c18 5 32 6 32 1 0 -4 9 -10 20 -13 34 -9 22 -32 -42 -83
-192 -153 -244 -179 -269 -133 -9 18 -7 25 15 48 14 15 26 33 26 40 0 8 11 24
25 37 14 13 25 28 25 34 0 9 14 14 33 11 4 0 6 5 5 12 -2 7 7 12 20 11 12 0
22 5 22 13 0 7 9 13 20 13 11 0 20 6 20 13 0 9 2 9 8 0 6 -9 17 -10 40 -4z
m2197 -9 c3 -5 -1 -10 -10 -10 -9 0 -13 5 -10 10 3 6 8 10 10 10 2 0 7 -4 10
-10z m70 0 c3 -6 -4 -10 -17 -10 -18 0 -20 2 -8 10 19 12 18 12 25 0z m65 -10
c0 -5 -2 -10 -4 -10 -3 0 -8 5 -11 10 -3 6 -1 10 4 10 6 0 11 -4 11 -10z
m-423 -32 c-3 -7 -5 -2 -5 12 0 14 2 19 5 13 2 -7 2 -19 0 -25z m173 12 c0 -5
-4 -10 -10 -10 -5 0 -10 5 -10 10 0 6 5 10 10 10 6 0 10 -4 10 -10z m246 -8
c17 -17 18 -29 2 -35 -8 -3 -6 -6 5 -6 9 -1 17 5 17 12 0 8 3 7 10 -3 6 -9 5
-17 -3 -23 -7 -5 1 -5 18 -1 46 11 134 9 147 -4 8 -8 7 -17 -4 -34 -13 -20
-13 -25 -1 -37 8 -7 12 -19 9 -27 -3 -8 1 -14 9 -14 8 0 16 -10 16 -22 7 -117
-3 -143 -60 -154 -30 -6 -43 7 -21 21 6 3 10 12 10 18 0 8 -3 9 -8 1 -16 -23
-40 -23 -56 2 -17 25 -9 33 13 12 11 -11 11 -9 2 9 -16 32 -13 53 8 53 10 0
24 7 31 15 9 10 9 15 1 15 -6 0 -11 -4 -11 -9 0 -5 -8 -7 -18 -4 -14 3 -23 -5
-36 -32 -17 -34 -17 -37 2 -68 16 -27 17 -35 5 -45 -7 -7 -13 -10 -13 -6 0 3
-7 0 -16 -7 -14 -11 -19 -9 -35 11 -10 14 -19 30 -19 35 0 20 -55 135 -63 135
-5 0 -4 -7 3 -15 12 -15 6 -35 -11 -35 -6 0 -8 4 -5 9 4 5 3 17 0 26 -5 13 -8
14 -15 3 -7 -10 -9 -9 -9 4 0 9 5 20 10 23 6 3 10 14 10 23 0 13 -2 13 -15 -4
-14 -19 -14 -19 -16 1 -1 11 -3 38 -5 60 -2 22 -1 47 2 55 4 12 8 12 21 -5 14
-17 15 -18 9 -2 -3 10 -6 21 -6 23 0 2 -19 5 -42 6 -41 1 -41 1 -8 5 19 3 40
9 45 15 7 7 7 9 0 6 -5 -3 -19 -2 -30 3 -13 5 3 7 44 6 39 0 68 -6 77 -15z
m-3276 -33 c0 -5 -4 -9 -10 -9 -5 0 -10 7 -10 16 0 8 5 12 10 9 6 -3 10 -10
10 -16z m2954 -18 c4 -5 -3 -7 -14 -4 -23 6 -26 13 -6 13 8 0 17 -4 20 -9z
m29 -27 c-3 -8 -12 -13 -20 -10 -8 3 -18 6 -21 7 -8 0 29 17 40 18 4 1 5 -6 1
-15z m-6 -39 c0 -8 -4 -15 -9 -15 -4 0 -8 7 -8 15 0 8 4 15 8 15 5 0 9 -7 9
-15z m43 -40 c-7 -9 -15 -13 -17 -11 -7 7 7 26 19 26 6 0 6 -6 -2 -15z m79
-92 c11 -21 9 -23 -11 -23 -16 0 -19 3 -10 8 8 5 10 16 6 28 -9 24 -1 16 15
-13z m86 -12 c3 -5 1 -12 -5 -16 -5 -3 -10 1 -10 9 0 18 6 21 15 7z m-51 -26
c3 -9 0 -15 -9 -15 -9 0 -12 6 -9 15 4 8 7 15 9 15 2 0 5 -7 9 -15z m286 -87
c0 -5 -4 -6 -10 -3 -5 3 -10 1 -10 -6 0 -9 -3 -10 -10 -3 -6 6 -8 18 -4 28 5
13 9 14 20 5 8 -6 14 -16 14 -21z m60 12 c0 -9 -12 -13 -30 -12 -3 0 -6 -10
-6 -23 -1 -18 2 -22 15 -18 10 3 6 -4 -10 -19 -28 -26 -44 -58 -29 -58 6 0 10
-5 10 -11 0 -20 -27 10 -32 35 -4 17 -1 23 9 19 8 -3 14 2 15 13 0 11 2 24 3
29 2 6 3 18 4 27 1 14 14 22 44 27 4 0 7 -3 7 -9z m-90 -45 c14 -15 18 -25 10
-25 -7 0 -18 -7 -25 -17 -8 -10 -14 -12 -19 -5 -3 6 1 18 11 27 13 14 14 18 2
25 -8 5 -19 4 -26 -2 -13 -11 -19 3 -6 15 12 13 30 7 53 -18z m-27 -167 c-10
-11 -19 -15 -21 -9 -2 6 -9 8 -14 5 -7 -4 -8 -2 -4 4 4 6 14 8 23 5 10 -4 14
-2 10 4 -3 5 0 10 8 10 12 0 12 -4 -2 -19z m-61 -54 c-5 -25 -12 -32 -12 -11
0 10 -4 17 -10 17 -5 0 -10 4 -10 9 0 5 8 8 18 6 11 -1 16 -9 14 -21z m2155
-89 c-4 -8 -14 -15 -23 -15 -16 0 -16 2 2 19 21 21 29 19 21 -4z m-2287 -109
c0 -3 -4 -8 -10 -11 -5 -3 -10 -1 -10 4 0 6 5 11 10 11 6 0 10 -2 10 -4z m20
-16 c-12 -8 -11 -10 8 -10 15 0 22 -6 22 -20 0 -11 -7 -20 -15 -20 -8 0 -12
-6 -9 -14 3 -8 -3 -19 -15 -25 -26 -15 -38 -14 -23 1 15 15 16 58 0 58 -6 0
-3 9 7 20 10 11 23 20 29 20 6 0 4 -5 -4 -10z m-62 -108 c16 -11 21 -63 6 -69
-6 -2 -14 8 -16 22 -3 14 -1 25 5 25 6 0 2 7 -9 15 -20 15 -9 21 14 7z m-28
-92 c0 -5 -4 -10 -10 -10 -5 0 -10 5 -10 10 0 6 5 10 10 10 6 0 10 -4 10 -10z
m-3040 -14 c0 -2 -7 -7 -16 -10 -8 -3 -12 -2 -9 4 6 10 25 14 25 6z m44 -20
c-6 -15 -34 -31 -34 -19 0 5 30 32 37 33 1 0 0 -6 -3 -14z m60 -48 c5 -21 3
-26 -7 -22 -9 3 -12 14 -9 30 5 29 7 28 16 -8z m26 -35 c-11 -17 -11 -17 -6 0
3 10 6 24 7 30 0 9 2 9 5 0 3 -7 0 -20 -6 -30z m-163 21 c-3 -3 -12 -4 -19 -1
-8 3 -5 6 6 6 11 1 17 -2 13 -5z m205 -56 c-7 -7 -12 -8 -12 -2 0 14 12 26 19
19 2 -3 -1 -11 -7 -17z m-132 4 c0 -5 -7 -9 -15 -9 -8 0 -12 4 -9 9 3 4 9 8
15 8 5 0 9 -4 9 -8z m105 -22 c3 -5 1 -10 -4 -10 -6 0 -11 5 -11 10 0 6 2 10
4 10 3 0 8 -4 11 -10z m-68 -6 c-3 -3 -12 -4 -19 -1 -8 3 -5 6 6 6 11 1 17 -2
13 -5z m38 -34 c-3 -5 -11 -10 -16 -10 -6 0 -7 5 -4 10 3 6 11 10 16 10 6 0 7
-4 4 -10z m6010 -9 c-3 -6 -11 -11 -17 -11 -6 0 -6 6 2 15 14 17 26 13 15 -4z
m-6015 -31 c0 -5 -5 -10 -11 -10 -5 0 -7 5 -4 10 3 6 8 10 11 10 2 0 4 -4 4
-10z m140 -4 c0 -3 -4 -8 -10 -11 -5 -3 -10 -1 -10 4 0 6 5 11 10 11 6 0 10
-2 10 -4z m-106 -31 c-4 -8 -8 -15 -10 -15 -2 0 -4 7 -4 15 0 8 4 15 10 15 5
0 7 -7 4 -15z m76 -5 c0 -5 -4 -10 -10 -10 -5 0 -10 5 -10 10 0 6 5 10 10 10
6 0 10 -4 10 -10z m40 -20 c0 -5 -8 -10 -17 -10 -15 0 -16 2 -3 10 19 12 20
12 20 0z m-40 -30 c0 -5 -4 -10 -10 -10 -5 0 -10 5 -10 10 0 6 5 10 10 10 6 0
10 -4 10 -10z m75 0 c4 -6 7 -24 7 -40 1 -31 12 -40 21 -17 4 9 8 8 16 -3 14
-19 14 -40 0 -40 -5 0 -7 5 -4 10 3 6 -4 10 -15 10 -14 0 -20 -5 -17 -13 2 -6
-1 -18 -8 -24 -18 -17 -29 11 -15 38 9 15 7 19 -7 19 -11 0 -14 3 -7 8 20 14
24 41 6 51 -16 10 -16 10 0 11 9 0 20 -5 23 -10z m-110 -10 c-3 -5 -1 -10 5
-10 7 0 9 -9 6 -22 -3 -13 -3 -17 0 -10 3 6 10 12 15 12 6 0 2 -11 -8 -24 -22
-29 -32 -25 -25 9 2 14 0 25 -7 25 -5 0 -8 7 -5 15 4 8 10 15 16 15 5 0 6 -4
3 -10z m155 -20 c0 -5 -7 -7 -15 -4 -8 4 -15 8 -15 10 0 2 7 4 15 4 8 0 15 -4
15 -10z m-76 -85 c3 -8 1 -15 -4 -15 -6 0 -10 7 -10 15 0 8 2 15 4 15 2 0 6
-7 10 -15z m16 -75 c0 -5 -2 -10 -4 -10 -3 0 -8 5 -11 10 -3 6 -1 10 4 10 6 0
11 -4 11 -10z m5080 -212 c0 -4 -6 -8 -14 -8 -8 0 -17 4 -20 8 -2 4 4 8 15 8
10 0 19 -4 19 -8z m40 -28 c0 -5 -5 -10 -11 -10 -5 0 -7 5 -4 10 3 6 8 10 11
10 2 0 4 -4 4 -10z m-78 -12 c-9 -9 -15 -9 -24 0 -9 9 -7 12 12 12 19 0 21 -3
12 -12z m-32 -19 c0 -5 -4 -9 -10 -9 -5 0 -10 7 -10 16 0 8 5 12 10 9 6 -3 10
-10 10 -16z m74 15 c9 -3 16 -12 16 -20 0 -8 7 -14 15 -14 9 0 12 -6 9 -15 -5
-12 -10 -13 -20 -4 -13 10 -18 6 -15 -13 0 -5 -5 -8 -13 -8 -9 0 -12 7 -9 21
5 19 4 20 -15 10 -25 -13 -32 -14 -32 -2 0 5 9 11 20 14 11 3 20 12 20 21 0
18 2 19 24 10z m61 -14 c3 -5 1 -10 -4 -10 -6 0 -11 5 -11 10 0 6 2 10 4 10 3
0 8 -4 11 -10z m5 -75 c-7 -8 -18 -15 -24 -14 -7 0 -6 2 2 6 6 2 9 9 6 14 -3
6 0 17 8 26 12 15 13 15 16 -1 2 -9 -2 -23 -8 -31z m40 -5 c0 -5 -4 -10 -10
-10 -5 0 -10 5 -10 10 0 6 5 10 10 10 6 0 10 -4 10 -10z m-30 -36 c0 -8 -5
-12 -10 -9 -6 4 -8 11 -5 16 9 14 15 11 15 -7z m35 -24 c-3 -5 -10 -10 -16
-10 -5 0 -9 5 -9 10 0 6 7 10 16 10 8 0 12 -4 9 -10z m-1091 -286 c-63 -188
-146 -396 -185 -468 -6 -10 -19 -33 -28 -50 -10 -17 -39 -73 -66 -123 -48 -92
-84 -124 -72 -64 5 22 1 33 -19 50 -18 16 -24 17 -24 6 0 -9 -9 -15 -25 -15
-25 0 -34 14 -16 25 5 3 13 19 16 36 4 17 29 66 56 108 27 42 49 86 49 99 0
12 6 33 14 45 10 14 15 48 14 97 -1 120 1 130 17 130 8 0 15 5 15 12 0 6 3 8
6 5 4 -4 1 -14 -7 -23 -13 -16 -12 -16 8 -6 16 9 23 9 27 -1 3 -6 3 -1 -1 13
-5 22 -4 23 9 12 13 -10 19 -10 34 5 17 17 17 17 11 1 -3 -10 -2 -18 3 -18 5
0 22 24 36 53 50 98 107 188 133 208 l26 21 3 -24 c2 -14 -14 -74 -34 -134z
m-131 -45 c-9 -9 -12 -7 -10 9 1 14 5 18 11 12 7 -7 6 -14 -1 -21z m-167 -286
c-10 -10 -19 5 -10 18 6 11 8 11 12 0 2 -7 1 -15 -2 -18z m-1656 -313 c0 -5
-2 -10 -4 -10 -3 0 -8 5 -11 10 -3 6 -1 10 4 10 6 0 11 -4 11 -10z m-20 -18
c0 -5 -7 -9 -15 -9 -8 0 -12 4 -9 9 3 4 9 8 15 8 5 0 9 -4 9 -8z m-40 -32 c0
-5 -5 -10 -11 -10 -5 0 -7 5 -4 10 3 6 8 10 11 10 2 0 4 -4 4 -10z m37 4 c-3
-3 -12 -4 -19 -1 -8 3 -5 6 6 6 11 1 17 -2 13 -5z m60 -39 c-9 -7 -21 -23 -26
-36 -8 -21 -10 -21 -10 -4 -1 23 42 79 48 63 2 -6 -3 -17 -12 -23z m-97 -15
c0 -5 -5 -10 -11 -10 -5 0 -7 5 -4 10 3 6 8 10 11 10 2 0 4 -4 4 -10z m-30
-30 c0 -5 -10 -10 -22 -10 -19 0 -20 2 -8 10 19 13 30 13 30 0z m37 -22 c-2
-7 -12 -12 -21 -12 -9 1 -16 -4 -16 -12 0 -8 -7 -14 -16 -14 -14 0 -14 3 -4
15 7 8 9 15 4 16 -9 1 33 16 49 18 5 1 7 -5 4 -11z m29 -32 c-3 -24 -27 -45
-43 -39 -14 5 -13 8 3 20 10 7 14 13 8 14 -5 0 0 4 11 9 11 5 21 9 22 9 1 1 0
-5 -1 -13z m-105 -26 c-3 -3 -9 -9 -13 -14 -5 -5 -8 3 -8 18 0 22 2 25 14 14
8 -7 11 -15 7 -18z m548 -29 c-15 -5 -22 6 -14 19 6 9 10 9 16 -1 5 -8 4 -15
-2 -18z m-29 5 c0 -3 -4 -8 -10 -11 -5 -3 -10 -1 -10 4 0 6 5 11 10 11 6 0 10
-2 10 -4z m-10 -45 c0 -11 3 -26 6 -35 4 -11 1 -16 -10 -16 -9 0 -16 -7 -16
-15 0 -9 -6 -12 -16 -8 -11 4 -12 8 -4 13 7 4 10 12 6 18 -3 6 0 13 6 15 8 3
6 6 -4 6 -10 1 -18 5 -18 11 0 9 28 29 43 30 4 0 7 -9 7 -19z m-150 -151 c0
-5 -5 -10 -11 -10 -5 0 -7 5 -4 10 3 6 8 10 11 10 2 0 4 -4 4 -10z m-835 -20
c-3 -5 -11 -10 -16 -10 -6 0 -7 5 -4 10 3 6 11 10 16 10 6 0 7 -4 4 -10z m49
-19 c3 -5 -3 -11 -14 -14 -20 -5 -26 3 -13 16 9 10 21 9 27 -2z m766 -21 c0
-11 -4 -20 -10 -20 -5 0 -10 9 -10 20 0 11 5 20 10 20 6 0 10 -9 10 -20z
m-810 -11 c0 -5 -4 -9 -10 -9 -5 0 -10 7 -10 16 0 8 5 12 10 9 6 -3 10 -10 10
-16z m75 1 c3 -5 1 -10 -4 -10 -6 0 -11 5 -11 10 0 6 2 10 4 10 3 0 8 -4 11
-10z m38 -10 c3 -11 1 -18 -4 -14 -5 3 -9 0 -9 -7 0 -7 -2 -10 -5 -8 -4 5 5
49 10 49 1 0 5 -9 8 -20z m45 -2 c10 -12 10 -18 1 -24 -8 -4 -9 -3 -5 5 4 6 0
14 -8 17 -9 3 -13 10 -10 16 3 5 7 8 8 6 1 -2 7 -10 14 -20z m1676 -3 c7 19 8
19 21 2 7 -10 19 -16 26 -15 21 4 20 -121 -1 -132 -12 -7 -12 -11 -3 -21 9 -9
8 -15 -3 -26 -8 -8 -17 -26 -21 -41 -3 -15 -19 -47 -35 -71 -15 -25 -28 -50
-28 -56 0 -5 -9 -16 -19 -22 -15 -10 -20 -9 -24 2 -4 8 -14 11 -27 8 -14 -4
-26 1 -35 13 -11 15 -16 17 -26 6 -15 -14 -43 -16 -34 -2 3 6 -1 10 -9 10 -25
0 -19 17 18 45 26 20 35 36 41 70 3 25 10 45 15 45 5 0 12 20 16 45 4 32 11
45 23 45 12 0 13 2 3 9 -11 6 -8 12 10 27 14 11 28 33 33 49 4 17 10 24 12 18
7 -19 23 -16 24 5 1 11 4 8 8 -8 6 -23 7 -24 15 -5z m-1067 -7 c-3 -8 -6 -5
-6 6 -1 11 2 17 5 13 3 -3 4 -12 1 -19z m563 -53 c0 -13 5 -27 10 -30 6 -3 10
-1 10 4 0 6 5 11 10 11 12 0 1 -53 -12 -58 -4 -2 -8 -10 -8 -17 0 -8 -7 -11
-20 -8 -14 4 -20 0 -20 -11 0 -19 -11 -21 -28 -4 -9 9 -12 7 -13 -13 0 -20 -2
-21 -8 -6 -4 10 -11 18 -16 17 -6 0 -11 11 -13 26 -3 24 -1 26 22 22 15 -3 27
0 30 8 3 8 1 14 -4 14 -16 0 -11 30 5 36 8 4 15 17 15 30 0 22 3 23 20 14 11
-6 20 -21 20 -35z m-1325 25 c3 -5 1 -10 -4 -10 -6 0 -11 5 -11 10 0 6 2 10 4
10 3 0 8 -4 11 -10z m85 -6 c0 -2 -7 -4 -15 -4 -8 0 -15 4 -15 10 0 5 7 7 15
4 8 -4 15 -8 15 -10z m-45 -23 c3 -5 1 -12 -5 -16 -5 -3 -10 1 -10 9 0 18 6
21 15 7z m685 -16 c0 -8 -4 -15 -10 -15 -5 0 -7 7 -4 15 4 8 8 15 10 15 2 0 4
-7 4 -15z m462 -201 c-2 -13 -9 -21 -17 -18 -14 6 -28 -22 -19 -37 3 -5 0 -9
-5 -9 -6 0 -11 8 -11 18 -1 15 -2 15 -16 -3 -14 -19 -15 -17 -11 22 3 26 1 43
-6 46 -6 2 -3 6 6 10 13 5 17 1 17 -14 0 -17 3 -18 21 -8 12 6 24 20 27 32 5
20 6 20 12 2 4 -10 5 -29 2 -41z m-35 31 c0 -8 -4 -12 -9 -9 -4 3 -8 9 -8 15
0 5 4 9 8 9 5 0 9 -7 9 -15z m-637 -55 c0 -5 -4 -10 -9 -10 -5 0 -18 -3 -28
-6 -16 -5 -16 -4 1 10 23 18 36 20 36 6z"/>
<path d="M860 6950 c0 -5 5 -10 10 -10 6 0 10 5 10 10 0 6 -4 10 -10 10 -5 0
-10 -4 -10 -10z"/>
<path d="M3984 5728 c3 -13 6 -30 6 -38 1 -13 2 -13 10 1 11 18 2 59 -12 59
-6 0 -8 -10 -4 -22z"/>
<path d="M1655 4750 c-8 -13 4 -32 16 -25 12 8 12 35 0 35 -6 0 -13 -4 -16
-10z"/>
<path d="M5430 3700 c0 -8 5 -22 10 -30 9 -13 10 -13 10 0 0 8 -5 22 -10 30
-9 13 -10 13 -10 0z"/>
<path d="M5444 3586 c-8 -21 27 -62 49 -58 9 2 17 7 17 10 -1 9 -21 34 -42 51
-15 11 -19 11 -24 -3z"/>
<path d="M5470 3471 c0 -10 57 -61 68 -61 4 0 14 4 22 10 12 7 10 11 -11 18
-14 6 -31 17 -38 26 -14 17 -41 22 -41 7z"/>
<path d="M5503 3393 c9 -9 20 -13 24 -9 4 4 1 11 -7 16 -25 16 -35 11 -17 -7z"/>
<path d="M5477 3358 c-8 -25 15 -67 51 -90 46 -30 101 -53 109 -45 11 11 -35
94 -67 121 -33 27 -85 35 -93 14z"/>
<path d="M5768 2443 c6 -2 18 -2 25 0 6 3 1 5 -13 5 -14 0 -19 -2 -12 -5z"/>
<path d="M5757 2385 c3 -8 9 -12 14 -9 12 7 11 11 -5 17 -10 4 -13 1 -9 -8z"/>
<path d="M3285 3730 c-3 -5 -1 -10 4 -10 6 0 11 5 11 10 0 6 -2 10 -4 10 -3 0
-8 -4 -11 -10z"/>
<path d="M3556 3605 c-3 -8 -1 -15 4 -15 6 0 10 7 10 15 0 8 -2 15 -4 15 -2 0
-6 -7 -10 -15z"/>
<path d="M3517 3579 c-4 -16 -3 -18 9 -8 7 6 11 15 8 20 -8 13 -11 11 -17 -12z"/>
<path d="M3300 2969 c0 -5 5 -7 10 -4 6 3 10 8 10 11 0 2 -4 4 -10 4 -5 0 -10
-5 -10 -11z"/>
<path d="M4332 1365 c4 -4 -2 -19 -12 -33 -25 -31 -26 -49 -2 -25 25 24 34 51
19 59 -7 4 -9 4 -5 -1z"/>
<path d="M4212 1025 c0 -16 2 -22 5 -12 2 9 2 23 0 30 -3 6 -5 -1 -5 -18z"/>
<path d="M4201 944 c0 -11 3 -14 6 -6 3 7 2 16 -1 19 -3 4 -6 -2 -5 -13z"/>
<path d="M3780 299 c0 -5 5 -7 10 -4 6 3 10 8 10 11 0 2 -4 4 -10 4 -5 0 -10
-5 -10 -11z"/>
<path d="M3831 286 c-8 -9 -11 -19 -7 -23 9 -9 29 13 24 27 -2 8 -8 7 -17 -4z"/>
<path d="M3300 350 c0 -5 5 -10 10 -10 6 0 10 5 10 10 0 6 -4 10 -10 10 -5 0
-10 -4 -10 -10z"/>
<path d="M2735 7565 c-5 -2 -40 -6 -78 -10 -53 -5 -77 -13 -115 -39 -26 -18
-58 -36 -72 -39 -25 -7 -70 -66 -70 -92 0 -8 -4 -16 -9 -20 -6 -3 -13 -26 -17
-51 -5 -38 -2 -54 16 -87 42 -75 69 -104 113 -119 127 -45 139 -46 230 -22 87
22 147 60 223 143 64 69 68 75 71 128 2 30 7 63 13 73 8 14 4 21 -18 36 -15 9
-37 27 -49 39 -31 30 -203 74 -238 60z"/>
<path d="M5355 7349 c-4 -6 -4 -13 -1 -16 8 -8 36 5 36 17 0 13 -27 13 -35 -1z"/>
<path d="M4730 7100 c0 -5 5 -10 10 -10 6 0 10 5 10 10 0 6 -4 10 -10 10 -5 0
-10 -4 -10 -10z"/>
<path d="M2035 7035 c-19 -14 -18 -14 9 -5 37 13 44 6 20 -21 -19 -22 -19 -22
4 -10 25 13 26 44 2 49 -9 1 -24 -4 -35 -13z"/>
<path d="M1360 5940 c-13 -9 -11 -13 10 -31 16 -13 19 -19 8 -15 -17 5 -35
-10 -25 -20 3 -3 40 0 83 5 44 6 127 13 185 16 116 5 190 13 198 20 4 4 -158
10 -199 7 -97 -6 -223 3 -228 17 -4 13 -12 14 -32 1z"/>
<path d="M957 5751 c-10 -3 -23 -16 -30 -27 -7 -11 -28 -45 -48 -75 -41 -60
-38 -79 13 -79 38 0 73 36 89 91 7 24 19 52 27 61 25 30 -5 48 -51 29z"/>
<path d="M6810 5613 c-30 -3 -60 -9 -67 -14 -7 -6 -17 -8 -23 -4 -5 3 -10 -1
-10 -10 0 -9 -11 -26 -25 -38 -36 -31 -45 -112 -20 -167 19 -43 97 -109 156
-134 52 -21 121 -29 165 -18 25 7 125 8 275 4 l237 -7 43 -30 c52 -37 92 -55
120 -55 18 0 20 6 17 43 l-3 42 -102 35 c-87 30 -114 45 -173 95 -39 33 -94
76 -123 95 -29 19 -68 47 -87 61 -78 60 -219 111 -291 107 -19 -1 -59 -3 -89
-5z"/>
<path d="M3 5581 c-1 -17 2 -18 35 -9 20 5 41 14 47 19 13 13 -21 12 -46 -1
-13 -7 -19 -7 -19 0 0 18 -16 10 -17 -9z"/>
<path d="M686 5584 c-4 -9 -4 -19 -2 -21 8 -8 26 8 26 23 0 19 -16 18 -24 -2z"/>
<path d="M1308 5573 c-10 -2 -18 -9 -18 -14 0 -6 8 -5 20 1 11 6 20 13 20 15
0 3 -1 4 -2 4 -2 -1 -11 -3 -20 -6z"/>
<path d="M1258 5553 c7 -3 16 -2 19 1 4 3 -2 6 -13 5 -11 0 -14 -3 -6 -6z"/>
<path d="M6303 5480 c-39 -23 -53 -65 -30 -87 34 -34 112 27 105 82 -4 27 -36
30 -75 5z"/>
<path d="M1 5474 c0 -11 3 -14 6 -6 3 7 2 16 -1 19 -3 4 -6 -2 -5 -13z"/>
<path d="M3730 5346 c0 -2 7 -9 15 -16 13 -11 14 -10 9 4 -5 14 -24 23 -24 12z"/>
<path d="M3845 5300 c0 -30 5 -42 22 -51 18 -9 21 -18 17 -43 -5 -29 -5 -30
10 -12 11 13 14 33 11 60 -5 54 -6 55 -13 28 -8 -28 -27 -25 -28 3 0 11 -4 28
-10 37 -7 14 -9 9 -9 -22z"/>
<path d="M3720 5298 c0 -19 2 -20 10 -8 13 19 13 30 0 30 -5 0 -10 -10 -10
-22z"/>
<path d="M3770 5270 c0 -5 5 -10 11 -10 5 0 7 5 4 10 -3 6 -8 10 -11 10 -2 0
-4 -4 -4 -10z"/>
<path d="M3924 5247 c-1 -30 -1 -30 9 -9 6 14 7 26 1 32 -5 5 -9 -4 -10 -23z"/>
<path d="M3960 5264 c0 -8 5 -12 10 -9 6 3 10 10 10 16 0 5 -4 9 -10 9 -5 0
-10 -7 -10 -16z"/>
<path d="M3731 5254 c0 -11 3 -14 6 -6 3 7 2 16 -1 19 -3 4 -6 -2 -5 -13z"/>
<path d="M3994 5215 c4 -10 2 -21 -4 -25 -7 -4 -4 -14 8 -28 23 -26 32 -28 32
-7 0 8 -5 15 -11 15 -6 0 -9 12 -7 27 2 16 -2 28 -11 31 -10 3 -12 0 -7 -13z"/>
<path d="M3927 5197 c-3 -8 1 -14 9 -14 16 0 19 13 5 21 -5 3 -11 0 -14 -7z"/>
<path d="M3935 5160 c3 -5 11 -10 16 -10 6 0 7 5 4 10 -3 6 -11 10 -16 10 -6
0 -7 -4 -4 -10z"/>
<path d="M2275 5113 c-11 -2 -30 -6 -42 -9 -13 -2 -23 -12 -23 -20 0 -13 7
-15 28 -11 48 10 83 27 77 37 -3 5 -9 9 -13 9 -4 -1 -16 -3 -27 -6z"/>
<path d="M1455 5070 c-27 -4 -70 -16 -95 -27 -25 -11 -57 -23 -72 -27 -16 -3
-28 -11 -28 -16 0 -6 -9 -10 -20 -10 -11 0 -20 -6 -20 -13 0 -9 -15 -13 -45
-13 -27 -1 -52 -7 -63 -17 -10 -10 -24 -17 -30 -17 -7 0 -12 -5 -12 -11 0 -6
-6 -9 -14 -6 -12 5 -58 -15 -140 -60 -27 -14 -28 -17 -12 -28 11 -8 13 -15 7
-20 -6 -3 -11 -1 -11 5 0 6 -10 4 -25 -6 -13 -9 -41 -17 -61 -19 -20 -2 -43
-10 -52 -18 -10 -7 -54 -35 -99 -61 -45 -26 -87 -53 -93 -61 -7 -8 -18 -15
-25 -15 -7 0 -15 -7 -19 -15 -3 -9 -12 -12 -21 -8 -11 4 -16 1 -15 -8 5 -30 0
-41 -15 -35 -8 3 -15 1 -15 -4 0 -6 -7 -10 -15 -10 -8 0 -15 4 -15 10 0 5 -33
-8 -74 -30 -41 -22 -84 -40 -95 -40 -32 0 -37 21 -10 42 37 30 148 103 209
139 30 17 57 35 60 38 3 4 20 13 37 20 18 8 33 20 33 27 0 8 6 14 14 14 7 0
16 10 20 23 5 18 8 19 15 7 9 -12 11 -12 17 3 3 9 15 17 25 17 24 0 99 39 99
51 0 6 12 16 28 22 40 18 133 79 128 84 -2 3 -17 -4 -33 -14 -23 -15 -26 -15
-15 -1 10 13 10 17 0 21 -13 5 35 11 61 8 7 -2 36 8 65 22 28 13 73 30 99 37
26 7 46 15 43 17 -6 6 -198 -36 -211 -46 -5 -5 -27 -11 -48 -15 -49 -9 -171
-49 -250 -82 -119 -50 -352 -168 -421 -213 -37 -25 -81 -53 -98 -62 -16 -8
-33 -22 -38 -30 -5 -8 -13 -14 -17 -14 -14 0 -48 -29 -60 -52 -16 -29 -19
-558 -3 -568 6 -3 10 2 10 11 0 10 3 14 7 11 3 -4 17 3 30 15 13 12 23 17 23
12 0 -5 15 8 33 28 24 27 37 34 47 28 24 -15 33 -11 16 6 -21 20 -20 34 2 36
17 1 31 4 45 8 4 1 11 3 16 4 5 0 13 4 17 9 4 4 15 7 25 7 9 0 19 9 22 20 3
13 10 18 21 14 11 -4 16 -1 16 11 0 10 6 15 18 13 9 -2 21 5 27 16 6 10 19 24
30 30 11 6 24 17 28 24 15 23 24 12 22 -25 -3 -52 -3 -53 -17 -53 -24 -1 -55
-36 -60 -68 -5 -35 15 -65 25 -37 4 8 13 12 22 9 9 -4 15 -1 15 9 0 8 10 21
21 29 14 9 21 24 22 42 0 17 3 23 7 16 11 -17 30 -3 30 22 0 14 5 18 16 14 12
-5 15 -2 10 10 -4 10 0 18 13 21 28 7 37 63 10 63 -6 0 -7 -4 -4 -10 11 -17
-5 -32 -21 -19 -11 9 -14 8 -14 -5 0 -19 -26 -22 -33 -3 -3 6 -6 0 -6 -15 -1
-28 -16 -45 -25 -29 -15 23 45 117 66 105 5 -3 8 0 8 5 0 6 9 11 19 11 11 0
22 6 24 13 4 9 8 8 16 -3 8 -12 11 -12 18 5 4 11 15 20 23 20 8 0 16 10 18 23
2 13 9 22 15 19 7 -3 23 11 37 29 14 18 31 32 38 29 6 -2 12 2 12 10 0 36 33
7 44 -38 4 -15 11 -25 16 -22 6 4 8 11 5 16 -4 5 0 9 7 9 18 0 78 64 78 84 0
9 5 16 11 16 5 0 7 -4 4 -10 -3 -5 -1 -10 5 -10 6 0 15 10 20 23 5 12 9 17 9
10 1 -11 49 15 86 45 16 13 55 21 55 11 0 -17 22 -9 51 20 16 16 29 24 29 18
1 -7 6 -3 13 9 7 12 18 19 25 17 6 -3 12 0 12 6 0 6 7 11 16 11 9 0 26 10 38
23 11 12 38 30 59 40 20 10 37 22 37 27 0 6 9 10 20 10 11 0 20 6 20 13 0 8
12 15 28 15 36 2 55 6 69 15 6 4 18 4 27 1 10 -4 16 -1 16 9 0 9 13 18 33 22
17 4 39 13 48 21 8 7 26 15 40 16 36 4 64 44 60 87 -1 10 -4 11 -15 2 -8 -7
-17 -8 -20 -3 -3 5 -45 14 -93 21 -48 7 -95 14 -103 15 -8 2 -37 0 -65 -4z
m-595 -121 c-7 -11 -14 -18 -17 -15 -8 8 5 36 17 36 7 0 7 -6 0 -21z"/>
<path d="M3808 5074 c6 -3 12 -15 12 -27 0 -12 4 -28 9 -36 8 -12 12 -12 25 2
9 8 16 19 16 23 0 5 -5 3 -12 -4 -19 -19 -29 -14 -26 15 2 21 -2 28 -17 30
-11 1 -14 0 -7 -3z"/>
<path d="M3900 5067 c-9 -7 -14 -20 -12 -30 3 -16 6 -15 18 8 17 32 15 38 -6
22z"/>
<path d="M2340 5050 c0 -5 9 -10 20 -10 11 0 20 5 20 10 0 6 -9 10 -20 10 -11
0 -20 -4 -20 -10z"/>
<path d="M2200 5007 c0 -9 20 -18 58 -27 31 -7 63 -15 70 -17 21 -9 3 23 -21
35 -12 6 -41 14 -64 17 -34 5 -43 4 -43 -8z"/>
<path d="M3896 5004 c-17 -12 -17 -14 -4 -14 9 0 20 5 23 11 11 17 2 18 -19 3z"/>
<path d="M2405 5000 c3 -5 8 -10 11 -10 2 0 4 5 4 10 0 6 -5 10 -11 10 -5 0
-7 -4 -4 -10z"/>
<path d="M3812 4980 c0 -14 2 -19 5 -12 2 6 2 18 0 25 -3 6 -5 1 -5 -13z"/>
<path d="M2030 4943 c0 -5 5 -15 10 -23 8 -13 10 -13 10 2 0 9 8 19 18 21 10
3 6 5 -10 6 -16 0 -28 -2 -28 -6z"/>
<path d="M2620 4930 c0 -5 7 -10 16 -10 8 0 12 5 9 10 -3 6 -10 10 -16 10 -5
0 -9 -4 -9 -10z"/>
<path d="M2826 4915 c4 -8 10 -15 15 -15 4 0 6 7 3 15 -4 8 -10 15 -15 15 -4
0 -6 -7 -3 -15z"/>
<path d="M2745 4910 c-3 -5 -1 -10 4 -10 6 0 11 5 11 10 0 6 -2 10 -4 10 -3 0
-8 -4 -11 -10z"/>
<path d="M3012 4890 c7 -10 14 -18 15 -16 6 6 -9 36 -18 36 -5 0 -4 -9 3 -20z"/>
<path d="M3895 4890 c-3 -5 1 -10 9 -10 9 0 16 5 16 10 0 6 -4 10 -9 10 -6 0
-13 -4 -16 -10z"/>
<path d="M2970 4860 c0 -5 5 -10 11 -10 5 0 7 5 4 10 -3 6 -8 10 -11 10 -2 0
-4 -4 -4 -10z"/>
<path d="M1570 4830 c0 -5 7 -7 15 -4 8 4 15 8 15 10 0 2 -7 4 -15 4 -8 0 -15
-4 -15 -10z"/>
<path d="M3300 4799 c0 -5 5 -7 10 -4 6 3 10 8 10 11 0 2 -4 4 -10 4 -5 0 -10
-5 -10 -11z"/>
<path d="M6185 4797 c17 -8 32 -13 34 -11 7 7 -3 12 -34 19 l-30 6 30 -14z"/>
<path d="M6245 4780 c-3 -5 -1 -10 4 -10 6 0 11 5 11 10 0 6 -2 10 -4 10 -3 0
-8 -4 -11 -10z"/>
<path d="M3260 4750 c-13 -8 -12 -10 3 -10 9 0 17 5 17 10 0 12 -1 12 -20 0z"/>
<path d="M3936 4635 c4 -8 1 -22 -5 -29 -9 -10 -9 -16 -1 -21 6 -4 12 -5 13
-4 2 2 9 12 16 21 11 15 10 20 -2 33 -20 19 -28 19 -21 0z"/>
<path d="M3860 4562 c0 -22 5 -44 10 -47 7 -4 8 8 4 37 -9 57 -14 61 -14 10z"/>
<path d="M3919 4558 c-6 -11 -5 -48 1 -48 4 0 8 11 8 25 0 21 -5 32 -9 23z"/>
<path d="M3874 4495 c-10 -8 -14 -14 -9 -15 15 0 40 18 34 24 -3 3 -14 -1 -25
-9z"/>
<path d="M804 4435 c-4 -8 -10 -13 -14 -10 -5 3 -22 -9 -39 -26 -30 -30 -40
-46 -22 -34 6 3 14 -3 20 -12 9 -16 12 -16 20 -3 8 11 6 17 -7 22 -15 6 -14 7
3 8 12 0 27 14 37 35 10 19 15 35 12 35 -2 0 -7 -7 -10 -15z"/>
<path d="M610 4356 c0 -9 5 -16 10 -16 6 0 10 4 10 9 0 6 -4 13 -10 16 -5 3
-10 -1 -10 -9z"/>
<path d="M645 4230 c3 -5 11 -10 16 -10 6 0 7 5 4 10 -3 6 -11 10 -16 10 -6 0
-7 -4 -4 -10z"/>
<path d="M616 4185 c-3 -9 -6 -22 -5 -28 0 -7 5 -1 10 12 5 13 8 26 5 28 -2 2
-6 -3 -10 -12z"/>
<path d="M7547 4151 c-4 -17 -3 -21 5 -13 5 5 8 16 6 23 -3 8 -7 3 -11 -10z"/>
<path d="M1805 4125 c-40 -14 -40 -14 -5 -8 19 3 42 9 50 14 22 12 1 9 -45 -6z"/>
<path d="M1615 4075 c-39 -17 -21 -18 25 0 19 7 28 14 20 14 -8 0 -28 -6 -45
-14z"/>
<path d="M6260 4036 c0 -2 8 -10 18 -17 15 -13 16 -12 3 4 -13 16 -21 21 -21
13z"/>
<path d="M340 4010 c0 -5 5 -10 11 -10 5 0 7 5 4 10 -3 6 -8 10 -11 10 -2 0
-4 -4 -4 -10z"/>
<path d="M2945 3970 c-3 -5 -1 -10 4 -10 6 0 11 5 11 10 0 6 -2 10 -4 10 -3 0
-8 -4 -11 -10z"/>
<path d="M2010 3920 c0 -5 9 -10 20 -10 11 0 20 5 20 10 0 6 -9 10 -20 10 -11
0 -20 -4 -20 -10z"/>
<path d="M2080 3910 c0 -14 -8 -20 -32 -22 -36 -3 -52 -28 -18 -28 14 0 19 4
15 13 -4 6 0 5 7 -4 7 -9 29 -20 48 -24 58 -12 151 -46 213 -77 32 -16 63 -26
69 -22 7 4 8 3 4 -4 -6 -10 63 -66 71 -58 2 1 -23 30 -55 63 -31 33 -68 73
-82 88 -32 36 -131 81 -192 89 -43 5 -48 3 -48 -14z"/>
<path d="M30 3844 c0 -8 5 -12 10 -9 6 4 8 11 5 16 -9 14 -15 11 -15 -7z"/>
<path d="M6720 3699 c0 -11 5 -17 10 -14 6 3 10 13 10 21 0 8 -4 14 -10 14 -5
0 -10 -9 -10 -21z"/>
<path d="M6746 3648 c-8 -18 -16 -27 -16 -20 0 25 -19 11 -26 -20 -9 -39 -12
-118 -4 -118 6 0 25 53 42 115 6 22 18 48 26 58 8 9 10 17 5 17 -6 0 -18 -15
-27 -32z"/>
<path d="M1491 3641 c-19 -12 -4 -31 25 -31 26 0 31 9 12 28 -14 14 -19 15
-37 3z"/>
<path d="M1324 3548 c-11 -18 35 -49 69 -46 41 4 45 24 8 42 -36 19 -67 21
-77 4z"/>
<path d="M2800 3376 c0 -2 8 -10 18 -17 15 -13 16 -12 3 4 -13 16 -21 21 -21
13z"/>
<path d="M6660 3360 c0 -5 5 -10 10 -10 6 0 10 5 10 10 0 6 -4 10 -10 10 -5 0
-10 -4 -10 -10z"/>
<path d="M1048 3289 c-53 -71 -177 -333 -164 -346 7 -7 36 16 36 29 0 5 36 81
80 170 80 158 98 214 48 147z"/>
<path d="M6480 3302 c0 -12 55 -88 70 -97 20 -12 22 3 4 32 -35 56 -74 90 -74
65z"/>
<path d="M3180 3248 c0 -8 6 -23 14 -33 13 -18 14 -18 9 8 -6 29 -23 48 -23
25z"/>
<path d="M2503 3224 c30 -16 44 -14 32 5 -3 6 -18 11 -33 11 l-27 -1 28 -15z"/>
<path d="M3330 3196 c0 -9 5 -16 10 -16 6 0 10 4 10 9 0 6 -4 13 -10 16 -5 3
-10 -1 -10 -9z"/>
<path d="M6565 3159 c-22 -22 -74 -58 -115 -79 -135 -68 -240 -173 -240 -241
0 -40 37 -61 81 -46 93 32 169 107 227 224 26 51 50 84 67 93 34 18 77 69 69
81 -13 21 -52 7 -89 -32z"/>
<path d="M3300 3134 c-14 -36 -12 -64 4 -64 10 0 13 9 11 31 -6 41 3 55 20 32
7 -10 10 -20 6 -23 -4 -3 -1 -16 7 -30 l14 -25 -6 28 c-4 15 -3 27 2 27 5 0 9
7 9 15 0 8 -6 15 -14 15 -7 0 -13 5 -13 10 0 21 -31 9 -40 -16z"/>
<path d="M6597 3064 c-10 -10 -9 -44 2 -44 13 0 23 32 13 42 -5 5 -11 5 -15 2z"/>
<path d="M16 2985 c-9 -26 -7 -32 5 -12 6 10 9 21 6 23 -2 3 -7 -2 -11 -11z"/>
<path d="M12 2920 c0 -19 2 -27 5 -17 2 9 2 25 0 35 -3 9 -5 1 -5 -18z"/>
<path d="M6547 2893 c-10 -10 -8 -63 2 -63 11 0 21 25 21 51 0 19 -11 25 -23
12z"/>
<path d="M10 2860 c0 -11 4 -20 9 -20 5 0 7 9 4 20 -3 11 -7 20 -9 20 -2 0 -4
-9 -4 -20z"/>
<path d="M750 2864 c0 -8 5 -12 10 -9 6 4 8 11 5 16 -9 14 -15 11 -15 -7z"/>
<path d="M6502 2828 c-14 -14 -16 -38 -3 -38 10 0 26 39 19 46 -2 2 -10 -2
-16 -8z"/>
<path d="M3074 2764 c-4 -10 -9 -22 -11 -26 -2 -5 0 -8 6 -8 11 0 26 39 17 47
-3 3 -9 -3 -12 -13z"/>
<path d="M10 2710 c0 -5 7 -10 16 -10 8 0 12 5 9 10 -3 6 -10 10 -16 10 -5 0
-9 -4 -9 -10z"/>
<path d="M1656 2707 c4 -13 44 -41 44 -32 0 8 -34 45 -42 45 -4 0 -5 -6 -2
-13z"/>
<path d="M780 2586 c0 -25 12 -46 26 -46 17 0 18 14 4 41 -12 22 -30 25 -30 5z"/>
<path d="M1656 2554 c-20 -20 -20 -27 2 -47 27 -24 38 -21 52 14 11 26 11 32
-1 40 -21 13 -36 11 -53 -7z"/>
<path d="M32 2490 c0 -14 2 -19 5 -12 2 6 2 18 0 25 -3 6 -5 1 -5 -13z"/>
<path d="M280 2410 c0 -5 5 -10 10 -10 6 0 10 5 10 10 0 6 -4 10 -10 10 -5 0
-10 -4 -10 -10z"/>
<path d="M270 2310 c-26 -22 -30 -30 -17 -30 9 0 17 5 17 12 0 9 3 9 12 0 19
-19 25 -14 26 18 0 17 0 30 -1 30 -1 0 -18 -14 -37 -30z"/>
<path d="M206 2305 c-3 -8 -1 -15 4 -15 6 0 10 7 10 15 0 8 -2 15 -4 15 -2 0
-6 -7 -10 -15z"/>
<path d="M210 2259 c0 -5 5 -7 10 -4 6 3 10 8 10 11 0 2 -4 4 -10 4 -5 0 -10
-5 -10 -11z"/>
<path d="M435 2210 c-3 -5 -1 -10 4 -10 6 0 11 5 11 10 0 6 -2 10 -4 10 -3 0
-8 -4 -11 -10z"/>
<path d="M1580 1985 c0 -16 27 -32 37 -21 7 7 -16 36 -28 36 -5 0 -9 -7 -9
-15z"/>
<path d="M0 1955 c0 -14 4 -25 9 -25 12 0 19 21 13 38 -8 21 -22 13 -22 -13z"/>
<path d="M7090 1605 c-7 -8 -10 -29 -8 -47 3 -20 0 -38 -8 -46 -20 -19 -4 -43
59 -94 65 -51 132 -83 222 -104 39 -9 91 -27 118 -40 54 -28 92 -31 101 -8 12
32 5 73 -17 101 -12 15 -35 46 -50 69 -23 34 -44 49 -120 83 -51 23 -118 55
-149 71 -63 33 -128 40 -148 15z"/>
<path d="M2070 1461 c0 -10 42 -23 49 -15 7 6 -20 24 -36 24 -7 0 -13 -4 -13
-9z"/>
<path d="M0 1348 c0 -111 10 -138 46 -124 13 5 15 14 9 44 -4 20 -8 61 -9 89
-1 40 -7 59 -24 75 l-22 22 0 -106z"/>
<path d="M5014 1375 c-9 -36 20 -113 66 -173 22 -29 40 -60 40 -69 0 -58 -91
-280 -132 -322 -17 -17 -28 -34 -25 -37 18 -18 140 181 167 274 7 23 18 46 25
52 14 11 78 -46 69 -62 -5 -7 -2 -9 8 -5 18 6 73 -47 107 -105 24 -41 47 -54
67 -37 18 15 5 39 -52 101 -24 25 -46 59 -49 75 -21 97 -78 187 -178 281 -64
59 -102 69 -113 27z"/>
<path d="M7092 1378 c3 -7 13 -15 22 -16 12 -3 17 1 14 10 -3 7 -13 15 -22 16
-12 3 -17 -1 -14 -10z"/>
<path d="M1945 1300 c-10 -16 36 -63 49 -50 7 7 2 18 -16 36 -18 18 -28 22
-33 14z"/>
<path d="M6685 1250 c3 -5 8 -10 11 -10 2 0 4 5 4 10 0 6 -5 10 -11 10 -5 0
-7 -4 -4 -10z"/>
<path d="M6980 1250 c0 -5 5 -10 10 -10 6 0 10 5 10 10 0 6 -4 10 -10 10 -5 0
-10 -4 -10 -10z"/>
<path d="M6524 1236 c-7 -20 2 -46 16 -46 13 0 13 47 0 55 -6 3 -13 -1 -16 -9z"/>
<path d="M6122 1178 c-15 -15 -16 -63 -1 -89 13 -26 35 -10 44 31 12 55 -13
88 -43 58z"/>
<path d="M6010 1025 c-14 -16 -19 -199 -8 -285 4 -30 10 -114 14 -187 4 -75
11 -130 16 -127 17 11 47 -28 96 -120 46 -85 62 -134 77 -231 11 -74 12 -75
66 -75 49 0 49 0 43 28 -4 15 -18 54 -31 87 -22 52 -26 83 -33 225 -19 393
-156 786 -240 685z"/>
<path d="M5410 1005 c0 -9 5 -15 11 -13 6 2 11 8 11 13 0 5 -5 11 -11 13 -6 2
-11 -4 -11 -13z"/>
<path d="M6576 994 c-12 -12 -13 -20 -6 -35 12 -22 30 -25 48 -7 18 18 15 36
-7 48 -15 7 -23 6 -35 -6z"/>
<path d="M5940 980 c-6 -11 -14 -43 -17 -70 -5 -41 -3 -50 9 -50 20 0 61 95
53 121 -8 25 -31 24 -45 -1z"/>
<path d="M1618 973 c7 -3 16 -2 19 1 4 3 -2 6 -13 5 -11 0 -14 -3 -6 -6z"/>
<path d="M2400 705 c-10 -12 -10 -18 0 -30 11 -13 9 -15 -11 -13 -18 2 -25 -2
-27 -19 -2 -13 1 -23 7 -23 6 0 11 7 11 16 0 13 3 14 14 5 10 -9 15 -8 19 4 4
9 13 12 24 9 14 -5 13 -2 -4 10 -14 10 -19 23 -16 36 6 24 0 26 -17 5z"/>
<path d="M2391 600 c-13 -12 -18 -20 -10 -20 18 0 33 12 37 28 3 16 2 15 -27
-8z"/>
<path d="M6810 535 c0 -8 5 -15 10 -15 6 0 10 7 10 15 0 8 -4 15 -10 15 -5 0
-10 -7 -10 -15z"/>
<path d="M2675 370 c-3 -5 -1 -10 4 -10 6 0 11 5 11 10 0 6 -2 10 -4 10 -3 0
-8 -4 -11 -10z"/>
<path d="M4650 355 c-8 -9 -8 -15 -2 -15 12 0 26 19 19 26 -2 2 -10 -2 -17
-11z"/>
<path d="M5973 335 c-23 -83 -81 -224 -111 -274 -18 -28 -32 -53 -32 -56 0 -3
27 -5 59 -5 l59 0 20 77 c33 123 52 291 33 279 -5 -4 -11 -1 -13 6 -3 7 -9 -5
-15 -27z"/>
<path d="M0 215 c0 -100 3 -145 11 -145 15 0 81 58 96 84 17 30 16 101 -2 137
-16 30 -68 69 -92 69 -10 0 -13 -36 -13 -145z"/>
<path d="M2660 329 c0 -15 18 -19 23 -6 3 8 -1 14 -9 14 -8 0 -14 -4 -14 -8z"/>
<path d="M6860 325 c-28 -34 10 -158 79 -260 12 -16 21 -38 21 -47 0 -15 9
-18 45 -18 l45 0 -11 28 c-6 15 -15 66 -20 114 -12 129 -54 198 -120 198 -15
0 -32 -7 -39 -15z"/>
<path d="M7340 281 c-18 -34 -11 -77 19 -117 41 -57 77 -86 98 -82 15 3 18 13
17 53 0 68 -9 98 -40 134 -31 37 -77 42 -94 12z"/>
<path d="M210 178 c0 -12 14 -57 31 -100 27 -66 35 -78 55 -78 21 0 22 3 14
28 -5 15 -16 50 -25 77 -20 62 -41 95 -60 95 -9 0 -15 -9 -15 -22z"/>
<path d="M4490 125 c-7 -9 -8 -15 -2 -15 5 0 12 7 16 15 3 8 4 15 2 15 -2 0
-9 -7 -16 -15z"/>
<path d="M70 86 c0 -8 5 -18 10 -21 6 -3 10 3 10 14 0 12 -4 21 -10 21 -5 0
-10 -6 -10 -14z"/>
<path d="M6761 58 c-23 -8 -50 -35 -51 -50 0 -5 36 -8 80 -8 44 0 80 4 80 8 0
34 -68 66 -109 50z"/>
<path d="M7345 10 c-4 -6 6 -10 22 -10 22 0 25 2 13 10 -19 12 -27 12 -35 0z"/>
</g>
</svg>
